<svg width="334" height="334" viewBox="0 0 334 334" fill="none" xmlns="http://www.w3.org/2000/svg">
<path d="M167 333.327C258.86 333.327 333.327 258.86 333.327 167C333.327 75.1405 258.86 0.673584 167 0.673584C75.1403 0.673584 0.67334 75.1405 0.67334 167C0.67334 258.86 75.1403 333.327 167 333.327Z" stroke="#028ADE" stroke-width="0.5" stroke-miterlimit="10"/>
<path d="M210.908 235.709C230.31 217.092 218.401 173.195 184.307 137.664C150.214 102.132 106.846 88.4211 87.4436 107.039C68.0409 125.656 79.9502 169.553 114.044 205.084C148.137 240.615 191.505 254.327 210.908 235.709Z" stroke="#028ADE" stroke-width="0.5" stroke-miterlimit="10"/>
<path d="M264.376 227.582C283.04 208.018 269.134 164.458 233.315 130.288C197.497 96.1178 153.331 84.2775 134.667 103.842C116.003 123.406 129.909 166.966 165.728 201.136C201.546 235.306 245.712 247.146 264.376 227.582Z" stroke="#028ADE" stroke-width="0.5" stroke-miterlimit="10"/>
<path d="M216.813 232.421C234.669 211.97 218.734 168.84 181.222 136.088C143.709 103.337 98.8243 93.3649 80.9686 113.816C63.1128 134.267 79.0477 177.397 116.56 210.149C154.073 242.901 198.958 252.872 216.813 232.421Z" stroke="#028ADE" stroke-width="0.5" stroke-miterlimit="10"/>
<path d="M270.606 220.55C287.614 199.246 269.665 156.639 230.515 125.385C191.366 94.1307 145.842 86.0644 128.834 107.368C111.826 128.672 129.776 171.279 168.925 202.534C208.074 233.788 253.599 241.854 270.606 220.55Z" stroke="#028ADE" stroke-width="0.5" stroke-miterlimit="10"/>
<path d="M222.469 228.708C238.575 206.622 218.599 164.63 177.851 134.917C137.104 105.203 91.0157 99.0205 74.9101 121.107C58.8045 143.193 78.7805 185.186 119.528 214.899C160.275 244.612 206.363 250.795 222.469 228.708Z" stroke="#028ADE" stroke-width="0.5" stroke-miterlimit="10"/>
<path d="M276.378 213.129C291.572 190.272 269.618 148.96 227.341 120.857C185.064 92.7535 138.475 88.5008 123.281 111.358C108.086 134.215 130.041 175.527 172.318 203.63C214.594 231.734 261.184 235.986 276.378 213.129Z" stroke="#028ADE" stroke-width="0.5" stroke-miterlimit="10"/>
<path d="M227.933 224.564C242.167 201.012 218.229 160.479 174.466 134.031C130.704 107.584 83.6885 105.236 69.4548 128.789C55.2211 152.341 79.1589 192.874 122.921 219.322C166.684 245.769 213.699 248.117 227.933 224.564Z" stroke="#028ADE" stroke-width="0.5" stroke-miterlimit="10"/>
<path d="M281.636 205.244C294.872 181.073 268.951 141.408 223.741 116.651C178.53 91.8938 131.15 91.4185 117.914 115.589C104.678 139.76 130.598 179.425 175.809 204.182C221.019 228.939 268.4 229.415 281.636 205.244Z" stroke="#028ADE" stroke-width="0.5" stroke-miterlimit="10"/>
<path d="M233.099 220.14C245.34 195.368 217.505 156.628 170.928 133.612C124.351 110.596 76.669 112.02 64.4279 136.792C52.1868 161.565 80.0218 200.305 126.599 223.321C173.176 246.337 220.858 244.913 233.099 220.14Z" stroke="#028ADE" stroke-width="0.5" stroke-miterlimit="10"/>
<path d="M286.391 197.093C297.605 171.797 267.862 134.075 219.957 112.837C172.052 91.5985 124.127 94.8876 112.912 120.183C101.698 145.478 131.441 183.201 179.346 204.439C227.251 225.677 275.177 222.388 286.391 197.093Z" stroke="#028ADE" stroke-width="0.5" stroke-miterlimit="10"/>
<path d="M237.95 215.396C248.132 189.628 216.544 152.996 167.397 133.574C118.249 114.153 70.1522 119.297 59.9701 145.065C49.7879 170.832 81.3758 207.464 130.524 226.886C179.672 246.307 227.768 241.163 237.95 215.396Z" stroke="#028ADE" stroke-width="0.5" stroke-miterlimit="10"/>
<path d="M290.54 188.711C299.684 162.518 266.281 127.035 215.932 109.457C165.582 91.8791 117.353 98.8631 108.208 125.056C99.064 151.249 132.467 186.732 182.817 204.31C233.166 221.888 281.396 214.904 290.54 188.711Z" stroke="#028ADE" stroke-width="0.5" stroke-miterlimit="10"/>
<path d="M242.519 210.413C250.626 183.84 215.47 149.569 163.997 133.866C112.524 118.163 64.2246 126.975 56.1181 153.548C48.0116 180.12 83.1672 214.391 134.64 230.094C186.114 245.797 234.413 236.986 242.519 210.413Z" stroke="#028ADE" stroke-width="0.5" stroke-miterlimit="10"/>
<path d="M294.11 180.136C301.17 153.267 264.29 120.292 211.737 106.485C159.185 92.6789 110.86 103.269 103.801 130.139C96.7415 157.008 133.621 189.983 186.174 203.79C238.726 217.596 287.051 207.006 294.11 180.136Z" stroke="#028ADE" stroke-width="0.5" stroke-miterlimit="10"/>
<path d="M246.731 205.192C252.749 178.069 214.212 146.45 160.656 134.568C107.101 122.687 58.8077 135.042 52.7903 162.165C46.7729 189.287 85.3101 220.906 138.865 232.788C192.421 244.67 240.714 232.315 246.731 205.192Z" stroke="#028ADE" stroke-width="0.5" stroke-miterlimit="10"/>
<path d="M297.081 171.443C302.075 144.075 261.959 113.831 207.48 103.891C153.001 93.9514 104.789 108.079 99.7953 135.447C94.802 162.814 134.918 193.058 189.397 202.998C243.876 212.938 292.088 198.81 297.081 171.443Z" stroke="#028ADE" stroke-width="0.5" stroke-miterlimit="10"/>
<path d="M250.621 199.824C254.591 172.289 212.928 143.498 157.565 135.516C102.201 127.534 54.1023 143.385 50.1327 170.919C46.163 198.454 87.8259 227.245 143.189 235.227C198.553 243.209 246.652 227.358 250.621 199.824Z" stroke="#028ADE" stroke-width="0.5" stroke-miterlimit="10"/>
<path d="M299.431 162.674C302.388 135.015 259.251 107.724 203.081 101.719C146.911 95.7139 98.9791 113.268 96.022 140.928C93.0649 168.588 136.202 195.878 192.372 201.883C248.542 207.888 296.474 190.334 299.431 162.674Z" stroke="#028ADE" stroke-width="0.5" stroke-miterlimit="10"/>
<path d="M254.187 194.269C256.144 166.52 211.599 140.772 154.692 136.758C97.7845 132.745 50.0657 151.986 48.1087 179.735C46.1517 207.483 90.6975 233.232 147.605 237.245C204.512 241.259 252.23 222.017 254.187 194.269Z" stroke="#028ADE" stroke-width="0.5" stroke-miterlimit="10"/>
<path d="M301.232 153.84C302.204 126.039 256.319 101.87 198.746 99.8581C141.173 97.8462 93.7135 118.753 92.742 146.554C91.7705 174.356 137.655 198.524 195.228 200.536C252.801 202.548 300.261 181.642 301.232 153.84Z" stroke="#028ADE" stroke-width="0.5" stroke-miterlimit="10"/>
<path d="M151.984 238.918C210.186 238.918 257.369 216.367 257.369 188.548C257.369 160.73 210.186 138.179 151.984 138.179C93.781 138.179 46.5985 160.73 46.5985 188.548C46.5985 216.367 93.781 238.918 151.984 238.918Z" stroke="#028ADE" stroke-width="0.5" stroke-miterlimit="10"/>
<path d="M197.75 199.022C256.513 197.004 303.375 172.83 302.42 145.028C301.465 117.227 253.055 96.3252 194.292 98.3434C135.53 100.362 88.6678 124.535 89.6226 152.337C90.5775 180.139 138.988 201.04 197.75 199.022Z" stroke="#028ADE" stroke-width="0.5" stroke-miterlimit="10"/>
<path d="M156.429 240.354C215.685 236.309 262.186 210.531 260.292 182.776C258.397 155.022 208.825 135.802 149.569 139.847C90.3125 143.892 43.8119 169.67 45.7064 197.425C47.601 225.179 97.1734 244.399 156.429 240.354Z" stroke="#028ADE" stroke-width="0.5" stroke-miterlimit="10"/>
<path d="M200.125 197.319C259.807 191.242 305.904 163.88 303.086 136.204C300.268 108.527 249.602 91.0175 189.92 97.0942C130.239 103.171 84.1415 130.533 86.9595 158.21C89.7775 185.886 140.444 203.396 200.125 197.319Z" stroke="#028ADE" stroke-width="0.5" stroke-miterlimit="10"/>
<path d="M160.815 241.433C220.853 233.321 266.503 204.397 262.779 176.829C259.054 149.261 207.364 133.489 147.327 141.601C87.289 149.713 41.6386 178.637 45.3635 206.205C49.0883 233.773 100.778 249.545 160.815 241.433Z" stroke="#028ADE" stroke-width="0.5" stroke-miterlimit="10"/>
<path d="M202.148 195.456C262.475 185.307 307.639 154.842 303.024 127.41C298.409 99.9786 245.763 85.9686 185.435 96.118C125.108 106.267 79.944 136.733 84.559 164.164C89.1741 191.596 141.82 205.606 202.148 195.456Z" stroke="#028ADE" stroke-width="0.5" stroke-miterlimit="10"/>
<path d="M165.289 242.293C225.845 230.105 270.48 198.089 264.984 170.782C259.488 143.475 205.943 131.219 145.387 143.407C84.8311 155.594 40.1961 187.611 45.692 214.918C51.1879 242.224 104.733 254.481 165.289 242.293Z" stroke="#028ADE" stroke-width="0.5" stroke-miterlimit="10"/>
<path d="M204.009 193.546C264.731 179.32 308.804 145.802 302.45 118.682C296.097 91.5621 241.721 81.1095 181 95.3356C120.279 109.562 76.2051 143.079 82.5589 170.199C88.9127 197.319 143.288 207.772 204.009 193.546Z" stroke="#028ADE" stroke-width="0.5" stroke-miterlimit="10"/>
<path d="M169.745 242.937C230.538 226.683 273.979 191.662 266.774 164.715C259.57 137.768 204.447 129.1 143.655 145.353C82.862 161.607 39.4205 196.628 46.6251 223.575C53.8298 250.522 108.952 259.191 169.745 242.937Z" stroke="#028ADE" stroke-width="0.5" stroke-miterlimit="10"/>
<path d="M205.647 191.608C266.481 173.32 309.287 136.84 301.257 110.127C293.226 83.4147 237.401 76.5848 176.567 94.8725C115.733 113.16 72.9274 149.64 80.9577 176.353C88.988 203.066 144.813 209.895 205.647 191.608Z" stroke="#028ADE" stroke-width="0.5" stroke-miterlimit="10"/>
<path d="M174.184 243.23C234.956 222.923 277.047 184.988 268.196 158.5C259.345 132.011 202.904 127 142.132 147.306C81.3596 167.613 39.2691 205.547 48.1201 232.036C56.971 258.525 113.412 263.536 174.184 243.23Z" stroke="#028ADE" stroke-width="0.5" stroke-miterlimit="10"/>
<path d="M207.052 189.692C267.748 167.361 309.124 127.98 299.467 101.733C289.81 75.4856 232.777 72.3117 172.081 94.6435C111.385 116.975 70.0095 156.356 79.6665 182.603C89.3235 208.85 146.356 212.024 207.052 189.692Z" stroke="#028ADE" stroke-width="0.5" stroke-miterlimit="10"/>
<path d="M178.661 243.405C239.183 219.06 279.774 178.262 269.322 152.28C258.871 126.298 201.336 124.97 140.815 149.315C80.2927 173.659 39.7024 214.457 50.1536 240.439C60.6048 266.421 118.14 267.749 178.661 243.405Z" stroke="#028ADE" stroke-width="0.5" stroke-miterlimit="10"/>
<path d="M208.274 187.662C268.557 161.32 308.324 119.136 297.096 93.4415C285.868 67.7472 227.897 68.2723 167.615 94.6143C107.332 120.956 67.5649 163.14 78.7927 188.834C90.0204 214.529 147.991 214.004 208.274 187.662Z" stroke="#028ADE" stroke-width="0.5" stroke-miterlimit="10"/>
<path d="M183.151 243.321C243.108 215 281.979 171.433 269.97 146.01C257.962 120.588 199.622 122.938 139.665 151.259C79.7073 179.58 40.8368 223.148 52.845 248.57C64.8533 273.992 123.193 271.642 183.151 243.321Z" stroke="#028ADE" stroke-width="0.5" stroke-miterlimit="10"/>
<path d="M209.284 185.642C268.857 155.355 306.807 110.458 294.048 85.3621C281.29 60.2666 222.653 64.4757 163.08 94.7633C103.507 125.051 65.557 169.948 78.3159 195.043C91.0748 220.139 149.711 215.93 209.284 185.642Z" stroke="#028ADE" stroke-width="0.5" stroke-miterlimit="10"/>
<path d="M187.65 243.057C246.785 210.816 283.769 164.588 270.256 139.804C256.744 115.021 197.852 121.066 138.717 153.307C79.5828 185.548 42.5988 231.776 56.1112 256.56C69.6236 281.343 128.516 275.298 187.65 243.057Z" stroke="#028ADE" stroke-width="0.5" stroke-miterlimit="10"/>
<path d="M210.175 183.747C268.81 149.567 304.789 102.038 290.536 77.5878C276.283 53.138 217.196 61.0261 158.562 95.2065C99.9269 129.387 63.9483 176.916 78.201 201.366C92.4538 225.816 151.541 217.928 210.175 183.747Z" stroke="#028ADE" stroke-width="0.5" stroke-miterlimit="10"/>
<path d="M192.163 242.489C250.21 206.398 285.121 157.605 270.139 133.508C255.156 109.411 195.954 119.135 137.906 155.226C79.8588 191.318 44.9478 240.111 59.9303 264.208C74.9129 288.305 134.115 278.581 192.163 242.489Z" stroke="#028ADE" stroke-width="0.5" stroke-miterlimit="10"/>
<path d="M210.933 181.805C268.338 143.812 302.145 93.7809 286.443 70.056C270.742 46.3312 211.477 57.8972 154.072 95.8894C96.6674 133.882 62.8604 183.913 78.5622 207.638C94.264 231.363 153.529 219.797 210.933 181.805Z" stroke="#028ADE" stroke-width="0.5" stroke-miterlimit="10"/>
<path d="M196.762 241.757C253.437 201.904 286.063 150.657 269.634 127.293C253.205 103.93 193.943 117.297 137.267 157.15C80.5921 197.002 47.966 248.25 64.3948 271.613C80.8237 294.977 140.086 281.61 196.762 241.757Z" stroke="#028ADE" stroke-width="0.5" stroke-miterlimit="10"/>
</svg>
