<svg width="205" height="70" viewBox="0 0 205 70" fill="none" xmlns="http://www.w3.org/2000/svg">
<g clip-path="url(#clip0)">
<path d="M133.437 26.7854H132.868C132.671 26.1178 132.3 25.5639 131.754 25.1239C131.223 24.6687 130.654 24.3424 130.048 24.1452C129.836 24.0845 129.623 24.039 129.411 24.0086C129.199 23.9631 128.994 23.9403 128.797 23.9403C127.948 23.9403 127.258 24.1528 126.727 24.5776C126.197 24.9873 125.931 25.5488 125.931 26.2619C125.931 27.051 126.189 27.6731 126.705 28.1283C127.235 28.5835 127.91 29.0084 128.729 29.4029C128.911 29.494 129.093 29.585 129.275 29.6761C129.472 29.7519 129.669 29.8354 129.866 29.9264C130.109 30.0326 130.343 30.1389 130.571 30.2451C130.798 30.3513 131.018 30.4499 131.231 30.541C132.307 31.0417 133.171 31.6032 133.823 32.2253C134.475 32.8475 134.801 33.7578 134.801 34.9565C134.801 35.169 134.778 35.3891 134.733 35.6167C134.703 35.8442 134.65 36.0795 134.574 36.3223C134.301 37.1264 133.77 37.8623 132.982 38.53C132.208 39.1977 131.132 39.5316 129.752 39.5316C129.191 39.5316 128.661 39.4936 128.16 39.4177C127.66 39.3418 127.167 39.2356 126.682 39.099C126.257 38.9626 125.825 38.8032 125.386 38.6211C124.961 38.439 124.514 38.2265 124.044 37.9837L123.885 34.9794H124.453C124.665 35.9202 125.242 36.7472 126.182 37.4604C127.137 38.1735 128.168 38.5527 129.275 38.5984C129.305 38.5984 129.328 38.5984 129.343 38.5984C129.373 38.5984 129.404 38.5984 129.434 38.5984C130.51 38.5984 131.382 38.3252 132.049 37.7789C132.716 37.2176 133.05 36.5194 133.05 35.6849C133.05 34.6682 132.732 33.9248 132.095 33.4545C131.458 32.9839 130.723 32.5742 129.889 32.2253C129.798 32.1798 129.699 32.1418 129.593 32.1115C129.502 32.066 129.411 32.0204 129.32 31.9749C128.956 31.8232 128.615 31.6714 128.297 31.5197C127.978 31.368 127.683 31.2162 127.41 31.0645C126.409 30.5334 125.659 29.9644 125.158 29.3574C124.658 28.7353 124.408 27.9311 124.408 26.9448C124.408 25.7915 124.84 24.8432 125.704 24.0997C126.568 23.3561 127.728 22.9844 129.184 22.9844C129.729 22.9844 130.343 23.0754 131.026 23.2575C131.708 23.4244 132.436 23.7355 133.209 24.1907L133.437 26.7854ZM141.72 35.166V37.3858C141.72 37.8689 141.812 38.2284 141.997 38.4649C142.192 38.7013 142.495 38.8194 142.906 38.8194C142.916 38.8194 142.921 38.8194 142.921 38.8194C142.932 38.8194 142.942 38.8194 142.952 38.8194V39.2356H139.363V38.8194C139.784 38.7988 140.067 38.6859 140.21 38.4803C140.354 38.2747 140.441 38.0486 140.472 37.802C140.483 37.7301 140.488 37.6581 140.488 37.5862C140.488 37.5143 140.488 37.4474 140.488 37.3858V30.2947C140.488 30.2433 140.488 30.1919 140.488 30.1405C140.488 30.0789 140.483 30.0172 140.472 29.9556C140.452 29.6986 140.37 29.4571 140.226 29.231C140.092 29.0049 139.805 28.8816 139.363 28.8611V28.4448H143.907C145.17 28.4448 146.064 28.6915 146.587 29.1848C147.121 29.6781 147.455 30.2228 147.589 30.8188C147.63 30.9832 147.655 31.1477 147.666 31.3121C147.686 31.4765 147.696 31.6358 147.696 31.79C147.696 32.7251 147.481 33.424 147.049 33.8865C146.618 34.3387 146.146 34.6573 145.632 34.8422C145.324 34.9553 145.021 35.0324 144.724 35.0735C144.436 35.1043 144.195 35.1249 144 35.1351L143.322 35.166H141.72ZM141.72 30.3101V34.5185H142.937C142.947 34.5185 142.957 34.5185 142.968 34.5185C142.978 34.5185 142.988 34.5185 142.998 34.5185C143.173 34.5185 143.358 34.5185 143.553 34.5185C143.758 34.5083 143.969 34.4877 144.184 34.4569C144.698 34.3746 145.17 34.1537 145.602 33.794C146.043 33.4342 146.264 32.7664 146.264 31.79C146.264 30.9781 146.1 30.3872 145.771 30.0172C145.453 29.6472 145.093 29.3955 144.693 29.2619C144.436 29.1796 144.184 29.1334 143.938 29.1231C143.702 29.1026 143.512 29.0923 143.368 29.0923C142.547 29.082 142.069 29.1591 141.936 29.3235C141.802 29.4777 141.735 29.6781 141.735 29.9247C141.735 29.935 141.735 29.9453 141.735 29.9556C141.735 29.9556 141.735 29.9607 141.735 29.971C141.735 30.0121 141.735 30.048 141.735 30.0789C141.735 30.0994 141.735 30.12 141.735 30.1405C141.735 30.1405 141.735 30.1457 141.735 30.156C141.725 30.1868 141.72 30.2176 141.72 30.2484C141.72 30.269 141.72 30.2895 141.72 30.3101ZM157.913 28.4448L158.252 30.5568H157.867C157.754 30.1971 157.574 29.9196 157.327 29.7243C157.081 29.5188 156.824 29.3698 156.557 29.2773C156.352 29.2053 156.147 29.1591 155.941 29.1385C155.746 29.1077 155.582 29.0923 155.448 29.0923H153.569C153.292 29.0923 153.081 29.1488 152.938 29.2619C152.804 29.3646 152.737 29.5702 152.737 29.8785V33.0386H155.14C155.582 33.0386 155.905 32.977 156.111 32.8536C156.326 32.7303 156.439 32.4477 156.45 32.0058H156.85V34.7652H156.45V34.6573C156.45 34.6366 156.45 34.6162 156.45 34.5956C156.45 34.575 156.45 34.5545 156.45 34.5339C156.419 34.3283 156.321 34.1383 156.157 33.9636C155.993 33.7786 155.782 33.6861 155.525 33.6861H152.737V37.6016C152.737 38.0847 152.855 38.3724 153.092 38.4649C153.328 38.5471 153.713 38.5882 154.247 38.5882H155.417C156.095 38.5882 156.655 38.4701 157.096 38.2336C157.538 37.9972 157.913 37.6016 158.221 37.0466H158.606L158.252 39.2356H150.365V38.8194C150.807 38.7988 151.099 38.6755 151.243 38.4494C151.387 38.213 151.469 37.9614 151.49 37.6941C151.5 37.6324 151.505 37.576 151.505 37.5245C151.505 37.4629 151.505 37.4064 151.505 37.3549V30.3255C151.505 30.2741 151.505 30.2228 151.505 30.1714C151.505 30.1097 151.5 30.048 151.49 29.9864C151.469 29.7192 151.387 29.4725 151.243 29.2464C151.099 29.0101 150.807 28.8816 150.365 28.8611V28.4448H157.913ZM169.987 30.7417H169.602C169.397 30.1971 169.038 29.7603 168.524 29.4314C168.011 29.0923 167.466 28.9073 166.891 28.8765C166.861 28.8765 166.835 28.8765 166.814 28.8765C166.794 28.8765 166.773 28.8765 166.753 28.8765C166.702 28.8765 166.65 28.8765 166.599 28.8765C166.558 28.8765 166.511 28.8816 166.46 28.8919C165.618 28.9535 164.843 29.3595 164.134 30.1097C163.426 30.8599 163.071 32.1034 163.071 33.8402C163.071 35.1453 163.385 36.3015 164.011 37.3087C164.648 38.3055 165.562 38.804 166.753 38.804C167.544 38.804 168.252 38.5984 168.878 38.1874C169.505 37.766 169.916 37.17 170.111 36.3992H170.496L170.403 38.5574C170.27 38.6498 170.131 38.7321 169.987 38.804C169.854 38.8759 169.715 38.9375 169.572 38.989C169.079 39.1842 168.601 39.3075 168.139 39.359C167.677 39.4104 167.323 39.436 167.076 39.436C166.994 39.436 166.922 39.436 166.861 39.436C166.809 39.436 166.773 39.436 166.753 39.436C165.315 39.436 164.139 38.9171 163.225 37.8791C162.322 36.8308 161.808 35.6799 161.685 34.426C161.675 34.3335 161.665 34.241 161.654 34.1485C161.654 34.0561 161.654 33.9636 161.654 33.8711C161.654 33.6963 161.659 33.5217 161.67 33.3469C161.69 33.162 161.721 32.9822 161.762 32.8074C161.978 31.6564 162.553 30.603 163.487 29.6472C164.432 28.6915 165.741 28.2136 167.415 28.2136C167.98 28.2136 168.458 28.265 168.848 28.3678C169.248 28.4705 169.602 28.6041 169.91 28.7686L169.987 30.7417ZM175.623 39.2356V38.8194C176.044 38.7988 176.336 38.6705 176.501 38.434C176.675 38.1976 176.763 37.8482 176.763 37.3858V30.1405C176.763 29.6575 176.681 29.3646 176.516 29.2619C176.352 29.1488 176.126 29.0923 175.838 29.0923C175.654 29.0923 175.433 29.1231 175.176 29.1848C174.919 29.2362 174.652 29.3544 174.375 29.5393C174.211 29.6421 174.052 29.7757 173.898 29.9401C173.744 30.0943 173.595 30.2793 173.451 30.4951H173.066L173.528 28.4448H181.214L181.676 30.4951H181.291C181.086 30.1662 180.86 29.9042 180.613 29.7089C180.367 29.5136 180.115 29.3646 179.859 29.2619C179.694 29.2002 179.53 29.1591 179.366 29.1385C179.212 29.1077 179.063 29.0923 178.919 29.0923C178.632 29.0923 178.4 29.1488 178.226 29.2619C178.062 29.3646 177.979 29.6575 177.979 30.1405V37.3858C177.979 37.8585 178.062 38.213 178.226 38.4494C178.39 38.6755 178.693 38.7988 179.135 38.8194V39.2356H175.623Z" fill="#39476A"/>
<path d="M133.437 26.7854H132.868C132.671 26.1178 132.3 25.5639 131.754 25.1239C131.223 24.6687 130.654 24.3424 130.048 24.1452C129.836 24.0845 129.623 24.039 129.411 24.0086C129.199 23.9631 128.994 23.9403 128.797 23.9403C127.948 23.9403 127.258 24.1528 126.727 24.5776C126.197 24.9873 125.931 25.5488 125.931 26.2619C125.931 27.051 126.189 27.6731 126.705 28.1283C127.235 28.5835 127.91 29.0084 128.729 29.4029C128.911 29.494 129.093 29.585 129.275 29.6761C129.472 29.7519 129.669 29.8354 129.866 29.9264C130.109 30.0326 130.343 30.1389 130.571 30.2451C130.798 30.3513 131.018 30.4499 131.231 30.541C132.307 31.0417 133.171 31.6032 133.823 32.2253C134.475 32.8475 134.801 33.7578 134.801 34.9565C134.801 35.169 134.778 35.3891 134.733 35.6167C134.703 35.8442 134.65 36.0795 134.574 36.3223C134.301 37.1264 133.77 37.8623 132.982 38.53C132.208 39.1977 131.132 39.5316 129.752 39.5316C129.191 39.5316 128.661 39.4936 128.16 39.4177C127.66 39.3418 127.167 39.2356 126.682 39.099C126.257 38.9626 125.825 38.8032 125.386 38.6211C124.961 38.439 124.514 38.2265 124.044 37.9837L123.885 34.9794H124.453C124.665 35.9202 125.242 36.7472 126.182 37.4604C127.137 38.1735 128.168 38.5527 129.275 38.5984C129.305 38.5984 129.328 38.5984 129.343 38.5984C129.373 38.5984 129.404 38.5984 129.434 38.5984C130.51 38.5984 131.382 38.3252 132.049 37.7789C132.716 37.2176 133.05 36.5194 133.05 35.6849C133.05 34.6682 132.732 33.9248 132.095 33.4545C131.458 32.9839 130.723 32.5742 129.889 32.2253C129.798 32.1798 129.699 32.1418 129.593 32.1115C129.502 32.066 129.411 32.0204 129.32 31.9749C128.956 31.8232 128.615 31.6714 128.297 31.5197C127.978 31.368 127.683 31.2162 127.41 31.0645C126.409 30.5334 125.659 29.9644 125.158 29.3574C124.658 28.7353 124.408 27.9311 124.408 26.9448C124.408 25.7915 124.84 24.8432 125.704 24.0997C126.568 23.3561 127.728 22.9844 129.184 22.9844C129.729 22.9844 130.343 23.0754 131.026 23.2575C131.708 23.4244 132.436 23.7355 133.209 24.1907L133.437 26.7854ZM141.72 35.166V37.3858C141.72 37.8689 141.812 38.2284 141.997 38.4649C142.192 38.7013 142.495 38.8194 142.906 38.8194C142.916 38.8194 142.921 38.8194 142.921 38.8194C142.932 38.8194 142.942 38.8194 142.952 38.8194V39.2356H139.363V38.8194C139.784 38.7988 140.067 38.6859 140.21 38.4803C140.354 38.2747 140.441 38.0486 140.472 37.802C140.483 37.7301 140.488 37.6581 140.488 37.5862C140.488 37.5143 140.488 37.4474 140.488 37.3858V30.2947C140.488 30.2433 140.488 30.1919 140.488 30.1405C140.488 30.0789 140.483 30.0172 140.472 29.9556C140.452 29.6986 140.37 29.4571 140.226 29.231C140.092 29.0049 139.805 28.8816 139.363 28.8611V28.4448H143.907C145.17 28.4448 146.064 28.6915 146.587 29.1848C147.121 29.6781 147.455 30.2228 147.589 30.8188C147.63 30.9832 147.655 31.1477 147.666 31.3121C147.686 31.4765 147.696 31.6358 147.696 31.79C147.696 32.7251 147.481 33.424 147.049 33.8865C146.618 34.3387 146.146 34.6573 145.632 34.8422C145.324 34.9553 145.021 35.0324 144.724 35.0735C144.436 35.1043 144.195 35.1249 144 35.1351L143.322 35.166H141.72ZM141.72 30.3101V34.5185H142.937C142.947 34.5185 142.957 34.5185 142.968 34.5185C142.978 34.5185 142.988 34.5185 142.998 34.5185C143.173 34.5185 143.358 34.5185 143.553 34.5185C143.758 34.5083 143.969 34.4877 144.184 34.4569C144.698 34.3746 145.17 34.1537 145.602 33.794C146.043 33.4342 146.264 32.7664 146.264 31.79C146.264 30.9781 146.1 30.3872 145.771 30.0172C145.453 29.6472 145.093 29.3955 144.693 29.2619C144.436 29.1796 144.184 29.1334 143.938 29.1231C143.702 29.1026 143.512 29.0923 143.368 29.0923C142.547 29.082 142.069 29.1591 141.936 29.3235C141.802 29.4777 141.735 29.6781 141.735 29.9247C141.735 29.935 141.735 29.9453 141.735 29.9556C141.735 29.9556 141.735 29.9607 141.735 29.971C141.735 30.0121 141.735 30.048 141.735 30.0789C141.735 30.0994 141.735 30.12 141.735 30.1405C141.735 30.1405 141.735 30.1457 141.735 30.156C141.725 30.1868 141.72 30.2176 141.72 30.2484C141.72 30.269 141.72 30.2895 141.72 30.3101ZM157.913 28.4448L158.252 30.5568H157.867C157.754 30.1971 157.574 29.9196 157.327 29.7243C157.081 29.5188 156.824 29.3698 156.557 29.2773C156.352 29.2053 156.147 29.1591 155.941 29.1385C155.746 29.1077 155.582 29.0923 155.448 29.0923H153.569C153.292 29.0923 153.081 29.1488 152.938 29.2619C152.804 29.3646 152.737 29.5702 152.737 29.8785V33.0386H155.14C155.582 33.0386 155.905 32.977 156.111 32.8536C156.326 32.7303 156.439 32.4477 156.45 32.0058H156.85V34.7652H156.45V34.6573C156.45 34.6366 156.45 34.6162 156.45 34.5956C156.45 34.575 156.45 34.5545 156.45 34.5339C156.419 34.3283 156.321 34.1383 156.157 33.9636C155.993 33.7786 155.782 33.6861 155.525 33.6861H152.737V37.6016C152.737 38.0847 152.855 38.3724 153.092 38.4649C153.328 38.5471 153.713 38.5882 154.247 38.5882H155.417C156.095 38.5882 156.655 38.4701 157.096 38.2336C157.538 37.9972 157.913 37.6016 158.221 37.0466H158.606L158.252 39.2356H150.365V38.8194C150.807 38.7988 151.099 38.6755 151.243 38.4494C151.387 38.213 151.469 37.9614 151.49 37.6941C151.5 37.6324 151.505 37.576 151.505 37.5245C151.505 37.4629 151.505 37.4064 151.505 37.3549V30.3255C151.505 30.2741 151.505 30.2228 151.505 30.1714C151.505 30.1097 151.5 30.048 151.49 29.9864C151.469 29.7192 151.387 29.4725 151.243 29.2464C151.099 29.0101 150.807 28.8816 150.365 28.8611V28.4448H157.913ZM169.987 30.7417H169.602C169.397 30.1971 169.038 29.7603 168.524 29.4314C168.011 29.0923 167.466 28.9073 166.891 28.8765C166.861 28.8765 166.835 28.8765 166.814 28.8765C166.794 28.8765 166.773 28.8765 166.753 28.8765C166.702 28.8765 166.65 28.8765 166.599 28.8765C166.558 28.8765 166.511 28.8816 166.46 28.8919C165.618 28.9535 164.843 29.3595 164.134 30.1097C163.426 30.8599 163.071 32.1034 163.071 33.8402C163.071 35.1453 163.385 36.3015 164.011 37.3087C164.648 38.3055 165.562 38.804 166.753 38.804C167.544 38.804 168.252 38.5984 168.878 38.1874C169.505 37.766 169.916 37.17 170.111 36.3992H170.496L170.403 38.5574C170.27 38.6498 170.131 38.7321 169.987 38.804C169.854 38.8759 169.715 38.9375 169.572 38.989C169.079 39.1842 168.601 39.3075 168.139 39.359C167.677 39.4104 167.323 39.436 167.076 39.436C166.994 39.436 166.922 39.436 166.861 39.436C166.809 39.436 166.773 39.436 166.753 39.436C165.315 39.436 164.139 38.9171 163.225 37.8791C162.322 36.8308 161.808 35.6799 161.685 34.426C161.675 34.3335 161.665 34.241 161.654 34.1485C161.654 34.0561 161.654 33.9636 161.654 33.8711C161.654 33.6963 161.659 33.5217 161.67 33.3469C161.69 33.162 161.721 32.9822 161.762 32.8074C161.978 31.6564 162.553 30.603 163.487 29.6472C164.432 28.6915 165.741 28.2136 167.415 28.2136C167.98 28.2136 168.458 28.265 168.848 28.3678C169.248 28.4705 169.602 28.6041 169.91 28.7686L169.987 30.7417ZM175.623 39.2356V38.8194C176.044 38.7988 176.336 38.6705 176.501 38.434C176.675 38.1976 176.763 37.8482 176.763 37.3858V30.1405C176.763 29.6575 176.681 29.3646 176.516 29.2619C176.352 29.1488 176.126 29.0923 175.838 29.0923C175.654 29.0923 175.433 29.1231 175.176 29.1848C174.919 29.2362 174.652 29.3544 174.375 29.5393C174.211 29.6421 174.052 29.7757 173.898 29.9401C173.744 30.0943 173.595 30.2793 173.451 30.4951H173.066L173.528 28.4448H181.214L181.676 30.4951H181.291C181.086 30.1662 180.86 29.9042 180.613 29.7089C180.367 29.5136 180.115 29.3646 179.859 29.2619C179.694 29.2002 179.53 29.1591 179.366 29.1385C179.212 29.1077 179.063 29.0923 178.919 29.0923C178.632 29.0923 178.4 29.1488 178.226 29.2619C178.062 29.3646 177.979 29.6575 177.979 30.1405V37.3858C177.979 37.8585 178.062 38.213 178.226 38.4494C178.39 38.6755 178.693 38.7988 179.135 38.8194V39.2356H175.623Z" fill="#7F7F7F"/>
<path d="M133.437 26.7854H132.868C132.671 26.1178 132.3 25.5639 131.754 25.1239C131.223 24.6687 130.654 24.3424 130.048 24.1452C129.836 24.0845 129.623 24.039 129.411 24.0086C129.199 23.9631 128.994 23.9403 128.797 23.9403C127.948 23.9403 127.258 24.1528 126.727 24.5776C126.197 24.9873 125.931 25.5488 125.931 26.2619C125.931 27.051 126.189 27.6731 126.705 28.1283C127.235 28.5835 127.91 29.0084 128.729 29.4029C128.911 29.494 129.093 29.585 129.275 29.6761C129.472 29.7519 129.669 29.8354 129.866 29.9264C130.109 30.0326 130.343 30.1389 130.571 30.2451C130.798 30.3513 131.018 30.4499 131.231 30.541C132.307 31.0417 133.171 31.6032 133.823 32.2253C134.475 32.8475 134.801 33.7578 134.801 34.9565C134.801 35.169 134.778 35.3891 134.733 35.6167C134.703 35.8442 134.65 36.0795 134.574 36.3223C134.301 37.1264 133.77 37.8623 132.982 38.53C132.208 39.1977 131.132 39.5316 129.752 39.5316C129.191 39.5316 128.661 39.4936 128.16 39.4177C127.66 39.3418 127.167 39.2356 126.682 39.099C126.257 38.9626 125.825 38.8032 125.386 38.6211C124.961 38.439 124.514 38.2265 124.044 37.9837L123.885 34.9794H124.453C124.665 35.9202 125.242 36.7472 126.182 37.4604C127.137 38.1735 128.168 38.5527 129.275 38.5984C129.305 38.5984 129.328 38.5984 129.343 38.5984C129.373 38.5984 129.404 38.5984 129.434 38.5984C130.51 38.5984 131.382 38.3252 132.049 37.7789C132.716 37.2176 133.05 36.5194 133.05 35.6849C133.05 34.6682 132.732 33.9248 132.095 33.4545C131.458 32.9839 130.723 32.5742 129.889 32.2253C129.798 32.1798 129.699 32.1418 129.593 32.1115C129.502 32.066 129.411 32.0204 129.32 31.9749C128.956 31.8232 128.615 31.6714 128.297 31.5197C127.978 31.368 127.683 31.2162 127.41 31.0645C126.409 30.5334 125.659 29.9644 125.158 29.3574C124.658 28.7353 124.408 27.9311 124.408 26.9448C124.408 25.7915 124.84 24.8432 125.704 24.0997C126.568 23.3561 127.728 22.9844 129.184 22.9844C129.729 22.9844 130.343 23.0754 131.026 23.2575C131.708 23.4244 132.436 23.7355 133.209 24.1907L133.437 26.7854ZM141.72 35.166V37.3858C141.72 37.8689 141.812 38.2284 141.997 38.4649C142.192 38.7013 142.495 38.8194 142.906 38.8194C142.916 38.8194 142.921 38.8194 142.921 38.8194C142.932 38.8194 142.942 38.8194 142.952 38.8194V39.2356H139.363V38.8194C139.784 38.7988 140.067 38.6859 140.21 38.4803C140.354 38.2747 140.441 38.0486 140.472 37.802C140.483 37.7301 140.488 37.6581 140.488 37.5862C140.488 37.5143 140.488 37.4474 140.488 37.3858V30.2947C140.488 30.2433 140.488 30.1919 140.488 30.1405C140.488 30.0789 140.483 30.0172 140.472 29.9556C140.452 29.6986 140.37 29.4571 140.226 29.231C140.092 29.0049 139.805 28.8816 139.363 28.8611V28.4448H143.907C145.17 28.4448 146.064 28.6915 146.587 29.1848C147.121 29.6781 147.455 30.2228 147.589 30.8188C147.63 30.9832 147.655 31.1477 147.666 31.3121C147.686 31.4765 147.696 31.6358 147.696 31.79C147.696 32.7251 147.481 33.424 147.049 33.8865C146.618 34.3387 146.146 34.6573 145.632 34.8422C145.324 34.9553 145.021 35.0324 144.724 35.0735C144.436 35.1043 144.195 35.1249 144 35.1351L143.322 35.166H141.72ZM141.72 30.3101V34.5185H142.937C142.947 34.5185 142.957 34.5185 142.968 34.5185C142.978 34.5185 142.988 34.5185 142.998 34.5185C143.173 34.5185 143.358 34.5185 143.553 34.5185C143.758 34.5083 143.969 34.4877 144.184 34.4569C144.698 34.3746 145.17 34.1537 145.602 33.794C146.043 33.4342 146.264 32.7664 146.264 31.79C146.264 30.9781 146.1 30.3872 145.771 30.0172C145.453 29.6472 145.093 29.3955 144.693 29.2619C144.436 29.1796 144.184 29.1334 143.938 29.1231C143.702 29.1026 143.512 29.0923 143.368 29.0923C142.547 29.082 142.069 29.1591 141.936 29.3235C141.802 29.4777 141.735 29.6781 141.735 29.9247C141.735 29.935 141.735 29.9453 141.735 29.9556C141.735 29.9556 141.735 29.9607 141.735 29.971C141.735 30.0121 141.735 30.048 141.735 30.0789C141.735 30.0994 141.735 30.12 141.735 30.1405C141.735 30.1405 141.735 30.1457 141.735 30.156C141.725 30.1868 141.72 30.2176 141.72 30.2484C141.72 30.269 141.72 30.2895 141.72 30.3101ZM157.913 28.4448L158.252 30.5568H157.867C157.754 30.1971 157.574 29.9196 157.327 29.7243C157.081 29.5188 156.824 29.3698 156.557 29.2773C156.352 29.2053 156.147 29.1591 155.941 29.1385C155.746 29.1077 155.582 29.0923 155.448 29.0923H153.569C153.292 29.0923 153.081 29.1488 152.938 29.2619C152.804 29.3646 152.737 29.5702 152.737 29.8785V33.0386H155.14C155.582 33.0386 155.905 32.977 156.111 32.8536C156.326 32.7303 156.439 32.4477 156.45 32.0058H156.85V34.7652H156.45V34.6573C156.45 34.6366 156.45 34.6162 156.45 34.5956C156.45 34.575 156.45 34.5545 156.45 34.5339C156.419 34.3283 156.321 34.1383 156.157 33.9636C155.993 33.7786 155.782 33.6861 155.525 33.6861H152.737V37.6016C152.737 38.0847 152.855 38.3724 153.092 38.4649C153.328 38.5471 153.713 38.5882 154.247 38.5882H155.417C156.095 38.5882 156.655 38.4701 157.096 38.2336C157.538 37.9972 157.913 37.6016 158.221 37.0466H158.606L158.252 39.2356H150.365V38.8194C150.807 38.7988 151.099 38.6755 151.243 38.4494C151.387 38.213 151.469 37.9614 151.49 37.6941C151.5 37.6324 151.505 37.576 151.505 37.5245C151.505 37.4629 151.505 37.4064 151.505 37.3549V30.3255C151.505 30.2741 151.505 30.2228 151.505 30.1714C151.505 30.1097 151.5 30.048 151.49 29.9864C151.469 29.7192 151.387 29.4725 151.243 29.2464C151.099 29.0101 150.807 28.8816 150.365 28.8611V28.4448H157.913ZM169.987 30.7417H169.602C169.397 30.1971 169.038 29.7603 168.524 29.4314C168.011 29.0923 167.466 28.9073 166.891 28.8765C166.861 28.8765 166.835 28.8765 166.814 28.8765C166.794 28.8765 166.773 28.8765 166.753 28.8765C166.702 28.8765 166.65 28.8765 166.599 28.8765C166.558 28.8765 166.511 28.8816 166.46 28.8919C165.618 28.9535 164.843 29.3595 164.134 30.1097C163.426 30.8599 163.071 32.1034 163.071 33.8402C163.071 35.1453 163.385 36.3015 164.011 37.3087C164.648 38.3055 165.562 38.804 166.753 38.804C167.544 38.804 168.252 38.5984 168.878 38.1874C169.505 37.766 169.916 37.17 170.111 36.3992H170.496L170.403 38.5574C170.27 38.6498 170.131 38.7321 169.987 38.804C169.854 38.8759 169.715 38.9375 169.572 38.989C169.079 39.1842 168.601 39.3075 168.139 39.359C167.677 39.4104 167.323 39.436 167.076 39.436C166.994 39.436 166.922 39.436 166.861 39.436C166.809 39.436 166.773 39.436 166.753 39.436C165.315 39.436 164.139 38.9171 163.225 37.8791C162.322 36.8308 161.808 35.6799 161.685 34.426C161.675 34.3335 161.665 34.241 161.654 34.1485C161.654 34.0561 161.654 33.9636 161.654 33.8711C161.654 33.6963 161.659 33.5217 161.67 33.3469C161.69 33.162 161.721 32.9822 161.762 32.8074C161.978 31.6564 162.553 30.603 163.487 29.6472C164.432 28.6915 165.741 28.2136 167.415 28.2136C167.98 28.2136 168.458 28.265 168.848 28.3678C169.248 28.4705 169.602 28.6041 169.91 28.7686L169.987 30.7417ZM175.623 39.2356V38.8194C176.044 38.7988 176.336 38.6705 176.501 38.434C176.675 38.1976 176.763 37.8482 176.763 37.3858V30.1405C176.763 29.6575 176.681 29.3646 176.516 29.2619C176.352 29.1488 176.126 29.0923 175.838 29.0923C175.654 29.0923 175.433 29.1231 175.176 29.1848C174.919 29.2362 174.652 29.3544 174.375 29.5393C174.211 29.6421 174.052 29.7757 173.898 29.9401C173.744 30.0943 173.595 30.2793 173.451 30.4951H173.066L173.528 28.4448H181.214L181.676 30.4951H181.291C181.086 30.1662 180.86 29.9042 180.613 29.7089C180.367 29.5136 180.115 29.3646 179.859 29.2619C179.694 29.2002 179.53 29.1591 179.366 29.1385C179.212 29.1077 179.063 29.0923 178.919 29.0923C178.632 29.0923 178.4 29.1488 178.226 29.2619C178.062 29.3646 177.979 29.6575 177.979 30.1405V37.3858C177.979 37.8585 178.062 38.213 178.226 38.4494C178.39 38.6755 178.693 38.7988 179.135 38.8194V39.2356H175.623Z" fill="#104D72"/>
<path d="M84.7644 35.1659V37.3858C84.7644 37.8688 84.8568 38.2284 85.0417 38.4648C85.2368 38.7013 85.5397 38.8194 85.9505 38.8194C85.9607 38.8194 85.9659 38.8194 85.9659 38.8194C85.9761 38.8194 85.9864 38.8194 85.9967 38.8194V39.2356H82.4077V38.8194C82.8287 38.7988 83.1111 38.6859 83.2549 38.4803C83.3987 38.2747 83.4859 38.0486 83.5168 37.802C83.527 37.7301 83.5322 37.658 83.5322 37.5862C83.5322 37.5143 83.5322 37.4474 83.5322 37.3858V30.2947C83.5322 30.2433 83.5322 30.1919 83.5322 30.1405C83.5322 30.0789 83.527 30.0172 83.5168 29.9555C83.4962 29.6986 83.4141 29.4571 83.2703 29.231C83.1368 29.0049 82.8493 28.8816 82.4077 28.861V28.4448H86.9517C88.2147 28.4448 89.1081 28.6915 89.6318 29.1848C90.1658 29.6781 90.4996 30.2227 90.6331 30.8188C90.6741 30.9832 90.6999 31.1477 90.7101 31.3121C90.7307 31.4765 90.7409 31.6358 90.7409 31.79C90.7409 32.7251 90.5252 33.424 90.0939 33.8865C89.6627 34.3387 89.1904 34.6572 88.6768 34.8422C88.3688 34.9553 88.0659 35.0324 87.7681 35.0735C87.4806 35.1043 87.2391 35.1249 87.0441 35.1351L86.3664 35.1659H84.7644ZM84.7644 30.3101V34.5185H85.9813C85.9915 34.5185 86.0018 34.5185 86.0121 34.5185C86.0223 34.5185 86.0326 34.5185 86.0429 34.5185C86.2175 34.5185 86.4024 34.5185 86.5974 34.5185C86.8028 34.5083 87.0133 34.4877 87.2289 34.4568C87.7424 34.3746 88.2147 34.1537 88.646 33.794C89.0875 33.4342 89.3084 32.7663 89.3084 31.79C89.3084 30.9781 89.1441 30.3872 88.8155 30.0172C88.4972 29.6472 88.1377 29.3954 87.7372 29.2618C87.4806 29.1796 87.2289 29.1334 86.9825 29.1231C86.7462 29.1025 86.5564 29.0923 86.4126 29.0923C85.5911 29.082 85.1135 29.1591 84.9801 29.3235C84.8466 29.4777 84.7798 29.6781 84.7798 29.9247C84.7798 29.935 84.7798 29.9453 84.7798 29.9555C84.7798 29.9555 84.7798 29.9607 84.7798 29.971C84.7798 30.0121 84.7798 30.048 84.7798 30.0789C84.7798 30.0994 84.7798 30.12 84.7798 30.1405C84.7798 30.1405 84.7798 30.1457 84.7798 30.1559C84.7696 30.1868 84.7644 30.2176 84.7644 30.2484C84.7644 30.269 84.7644 30.2895 84.7644 30.3101ZM100.957 28.4448L101.296 30.5567H100.911C100.798 30.197 100.618 29.9196 100.372 29.7243C100.126 29.5188 99.8687 29.3697 99.6018 29.2773C99.3964 29.2053 99.1909 29.1591 98.9857 29.1385C98.7904 29.1077 98.6262 29.0923 98.4928 29.0923H96.6136C96.3363 29.0923 96.1257 29.1488 95.982 29.2618C95.8484 29.3646 95.7818 29.5702 95.7818 29.8785V33.0386H98.1847C98.6262 33.0386 98.9497 32.977 99.1551 32.8536C99.3708 32.7303 99.4836 32.4477 99.494 32.0058H99.8945V34.7651H99.494V34.6572C99.494 34.6366 99.494 34.6162 99.494 34.5956C99.494 34.575 99.494 34.5545 99.494 34.5339C99.4632 34.3283 99.3656 34.1383 99.2013 33.9635C99.0369 33.7786 98.8264 33.6861 98.5698 33.6861H95.7818V37.6016C95.7818 38.0847 95.8998 38.3724 96.1361 38.4648C96.3721 38.5471 96.7572 38.5882 97.2913 38.5882H98.462C99.1397 38.5882 99.6992 38.47 100.141 38.2336C100.582 37.9972 100.957 37.6016 101.265 37.0466H101.65L101.296 39.2356H93.4097V38.8194C93.8512 38.7988 94.1438 38.6755 94.2877 38.4494C94.4313 38.213 94.5135 37.9613 94.5341 37.6941C94.5443 37.6324 94.5495 37.576 94.5495 37.5245C94.5495 37.4628 94.5495 37.4064 94.5495 37.3549V30.3255C94.5495 30.2741 94.5495 30.2227 94.5495 30.1714C94.5495 30.1097 94.5443 30.048 94.5341 29.9864C94.5135 29.7192 94.4313 29.4725 94.2877 29.2464C94.1438 29.0101 93.8512 28.8816 93.4097 28.861V28.4448H100.957ZM109.058 28.4448C110.115 28.4448 110.906 28.6247 111.43 28.9844C111.954 29.3441 112.318 29.7397 112.524 30.1714C112.657 30.4386 112.739 30.7006 112.77 30.9575C112.811 31.2042 112.832 31.4097 112.832 31.5742C112.832 32.3141 112.642 32.8999 112.262 33.3315C111.892 33.7631 111.486 34.0767 111.045 34.2719C110.932 34.3233 110.819 34.3695 110.706 34.4106C110.603 34.4414 110.501 34.4671 110.398 34.4877L112.246 37.6632C112.287 37.7249 112.318 37.7814 112.339 37.8328C112.37 37.8739 112.4 37.9151 112.431 37.9561C112.441 37.9561 112.447 37.9613 112.447 37.9716C112.447 37.9716 112.447 37.9768 112.447 37.987C112.467 38.0076 112.483 38.028 112.493 38.0486C112.513 38.0692 112.534 38.0949 112.554 38.1257C112.575 38.1565 112.611 38.2028 112.662 38.2644C112.714 38.3261 112.775 38.3878 112.847 38.4494C112.95 38.5419 113.078 38.6292 113.232 38.7115C113.396 38.7834 113.586 38.8194 113.802 38.8194C113.812 38.8194 113.817 38.8194 113.817 38.8194C113.828 38.8194 113.833 38.8194 113.833 38.8194V39.2356H110.398V38.8194H110.598C110.783 38.8194 110.947 38.804 111.091 38.7732C111.235 38.7321 111.307 38.6446 111.307 38.5111C111.307 38.5009 111.307 38.4905 111.307 38.4803C111.307 38.4596 111.302 38.4392 111.291 38.4186C111.281 38.3363 111.24 38.249 111.168 38.1565C111.107 38.064 111.045 37.9663 110.983 37.8636C110.963 37.843 110.947 37.8226 110.937 37.802C110.927 37.7814 110.916 37.7609 110.906 37.7403L109.135 34.7343C109.063 34.7445 108.996 34.7497 108.935 34.7497C108.883 34.7497 108.832 34.7497 108.781 34.7497C108.709 34.7497 108.627 34.7497 108.534 34.7497C108.452 34.7497 108.349 34.7445 108.226 34.7343C108.195 34.7343 108.164 34.7343 108.134 34.7343C108.103 34.7343 108.072 34.7343 108.041 34.7343C107.969 34.7241 107.897 34.7189 107.826 34.7189C107.764 34.7189 107.702 34.7137 107.641 34.7035C107.548 34.7035 107.451 34.6983 107.348 34.6881C107.256 34.6675 107.148 34.647 107.025 34.6264V37.3549C107.025 37.396 107.025 37.4422 107.025 37.4937C107.025 37.5347 107.025 37.576 107.025 37.617C107.045 37.9047 107.122 38.172 107.256 38.4186C107.4 38.655 107.708 38.7886 108.18 38.8194V39.2356H104.637V38.8194C105.151 38.7988 105.469 38.655 105.592 38.3878C105.726 38.1103 105.792 37.7659 105.792 37.3549V30.3409C105.792 29.9093 105.71 29.5753 105.546 29.3389C105.392 29.1025 105.089 28.9433 104.637 28.861V28.4448H109.058ZM107.025 29.8476V34.0252C107.23 34.056 107.43 34.0817 107.625 34.1023C107.82 34.1125 108.005 34.1177 108.18 34.1177C109.268 34.1177 110.08 33.8658 110.614 33.3623C111.148 32.8484 111.415 32.2319 111.415 31.5125C111.415 30.8342 111.261 30.3307 110.952 30.0018C110.644 29.6626 110.306 29.4263 109.936 29.2927C109.7 29.2105 109.469 29.1591 109.243 29.1385C109.027 29.1077 108.847 29.0923 108.704 29.0923C108.077 29.0923 107.641 29.1334 107.394 29.2156C107.148 29.2978 107.025 29.5085 107.025 29.8476Z" fill="#104D72"/>
<path d="M129.778 51.836H128.934L128.244 50.0098H125.485L124.836 51.836H123.987L126.483 45.322H127.273L129.778 51.836ZM127.995 49.3239L126.973 46.5485C126.94 46.4576 126.907 46.3123 126.874 46.1123H126.855C126.825 46.297 126.79 46.4425 126.751 46.5485L125.739 49.3239H127.995ZM130.36 51.668V50.8685C130.765 51.1683 131.211 51.3182 131.698 51.3182C132.352 51.3182 132.679 51.1001 132.679 50.664C132.679 50.5399 132.65 50.4353 132.593 50.3505C132.538 50.2627 132.463 50.1856 132.366 50.1189C132.272 50.0522 132.16 49.9933 132.03 49.9418C131.903 49.8873 131.765 49.8312 131.617 49.7736C131.411 49.6919 131.229 49.6102 131.072 49.5283C130.918 49.4435 130.788 49.3497 130.682 49.2468C130.579 49.1408 130.5 49.0211 130.446 48.8878C130.394 48.7546 130.369 48.5986 130.369 48.4199C130.369 48.202 130.418 48.0097 130.518 47.843C130.618 47.6735 130.751 47.5326 130.918 47.4206C131.084 47.3056 131.273 47.2193 131.485 47.1617C131.7 47.1042 131.921 47.0753 132.148 47.0753C132.55 47.0753 132.91 47.1451 133.228 47.2844V48.0384C132.886 47.8143 132.493 47.7022 132.048 47.7022C131.909 47.7022 131.783 47.7189 131.671 47.7523C131.559 47.7825 131.462 47.8264 131.381 47.8839C131.302 47.9415 131.24 48.0112 131.195 48.0929C131.152 48.1716 131.131 48.2594 131.131 48.3564C131.131 48.4776 131.152 48.5789 131.195 48.6608C131.24 48.7425 131.305 48.8152 131.39 48.8787C131.475 48.9423 131.578 48.9999 131.698 49.0514C131.82 49.1028 131.957 49.1589 132.111 49.2194C132.317 49.2982 132.502 49.3799 132.665 49.4647C132.829 49.5466 132.968 49.6405 133.083 49.7464C133.198 49.8493 133.286 49.969 133.346 50.1052C133.41 50.2415 133.442 50.4035 133.442 50.5914C133.442 50.8215 133.39 51.0213 133.287 51.1909C133.187 51.3606 133.053 51.5013 132.883 51.6134C132.714 51.7254 132.518 51.8088 132.298 51.8632C132.077 51.9177 131.845 51.9451 131.603 51.9451C131.125 51.9451 130.711 51.8526 130.36 51.668ZM134.308 51.668V50.8685C134.714 51.1683 135.16 51.3182 135.647 51.3182C136.301 51.3182 136.628 51.1001 136.628 50.664C136.628 50.5399 136.599 50.4353 136.542 50.3505C136.487 50.2627 136.411 50.1856 136.315 50.1189C136.221 50.0522 136.109 49.9933 135.979 49.9418C135.852 49.8873 135.714 49.8312 135.566 49.7736C135.36 49.6919 135.178 49.6102 135.021 49.5283C134.867 49.4435 134.737 49.3497 134.631 49.2468C134.528 49.1408 134.449 49.0211 134.395 48.8878C134.343 48.7546 134.318 48.5986 134.318 48.4199C134.318 48.202 134.367 48.0097 134.467 47.843C134.567 47.6735 134.7 47.5326 134.867 47.4206C135.033 47.3056 135.222 47.2193 135.434 47.1617C135.649 47.1042 135.87 47.0753 136.097 47.0753C136.499 47.0753 136.859 47.1451 137.177 47.2844V48.0384C136.835 47.8143 136.442 47.7022 135.997 47.7022C135.858 47.7022 135.732 47.7189 135.62 47.7523C135.508 47.7825 135.411 47.8264 135.33 47.8839C135.251 47.9415 135.189 48.0112 135.144 48.0929C135.101 48.1716 135.08 48.2594 135.08 48.3564C135.08 48.4776 135.101 48.5789 135.144 48.6608C135.189 48.7425 135.254 48.8152 135.339 48.8787C135.424 48.9423 135.526 48.9999 135.647 49.0514C135.768 49.1028 135.906 49.1589 136.06 49.2194C136.266 49.2982 136.451 49.3799 136.614 49.4647C136.778 49.5466 136.917 49.6405 137.032 49.7464C137.147 49.8493 137.235 49.969 137.295 50.1052C137.359 50.2415 137.39 50.4035 137.39 50.5914C137.39 50.8215 137.339 51.0213 137.236 51.1909C137.136 51.3606 137.002 51.5013 136.832 51.6134C136.663 51.7254 136.467 51.8088 136.247 51.8632C136.026 51.9177 135.794 51.9451 135.552 51.9451C135.074 51.9451 134.659 51.8526 134.308 51.668ZM142.274 49.6965H138.993C139.005 50.2143 139.144 50.6141 139.41 50.8957C139.677 51.1774 140.043 51.3182 140.509 51.3182C141.032 51.3182 141.513 51.1456 141.952 50.8003V51.4999C141.544 51.7967 141.003 51.9451 140.332 51.9451C139.675 51.9451 139.159 51.7346 138.784 51.3136C138.409 50.8897 138.221 50.2945 138.221 49.5283C138.221 48.8046 138.425 48.2155 138.834 47.7613C139.245 47.3041 139.755 47.0753 140.363 47.0753C140.972 47.0753 141.442 47.2723 141.775 47.6659C142.108 48.0596 142.274 48.6063 142.274 49.3058V49.6965ZM141.512 49.0651C141.509 48.635 141.404 48.3003 141.199 48.0611C140.996 47.8218 140.713 47.7022 140.35 47.7022C139.999 47.7022 139.701 47.828 139.456 48.0793C139.211 48.3307 139.059 48.6593 139.002 49.0651H141.512ZM145.561 51.7905C145.385 51.8875 145.154 51.936 144.866 51.936C144.052 51.936 143.645 51.4816 143.645 50.5731V47.8203H142.846V47.1844H143.645V46.0487L144.39 45.808V47.1844H145.561V47.8203H144.39V50.4415C144.39 50.7533 144.443 50.976 144.548 51.1092C144.654 51.2425 144.83 51.309 145.075 51.309C145.263 51.309 145.424 51.2575 145.561 51.1546V51.7905ZM155.841 51.836H155.083V47.4661C155.083 47.1208 155.105 46.6984 155.147 46.1986H155.129C155.056 46.4924 154.991 46.7029 154.934 46.83L152.709 51.836H152.337L150.118 46.8665C150.054 46.721 149.989 46.4984 149.923 46.1986H149.904C149.929 46.4591 149.941 46.8846 149.941 47.4752V51.836H149.205V45.322H150.213L152.21 49.8646C152.365 50.2128 152.464 50.4733 152.51 50.6459H152.537C152.667 50.2885 152.771 50.022 152.85 49.8464L154.888 45.322H155.841V51.836ZM160.784 51.836H160.04V51.1092H160.022C159.698 51.6664 159.221 51.9451 158.592 51.9451C158.129 51.9451 157.766 51.8223 157.503 51.577C157.242 51.3317 157.112 51.0063 157.112 50.6005C157.112 49.7312 157.624 49.2256 158.646 49.0832L160.04 48.8878C160.04 48.0974 159.721 47.7022 159.082 47.7022C158.522 47.7022 158.017 47.8931 157.566 48.2747V47.5114C158.023 47.2208 158.55 47.0753 159.146 47.0753C160.238 47.0753 160.784 47.6538 160.784 48.8107V51.836ZM160.04 49.483L158.919 49.6374C158.574 49.6859 158.314 49.7721 158.138 49.8964C157.963 50.0174 157.875 50.234 157.875 50.5459C157.875 50.7731 157.955 50.9592 158.115 51.1047C158.279 51.2469 158.495 51.3182 158.764 51.3182C159.134 51.3182 159.438 51.1895 159.677 50.9321C159.919 50.6716 160.04 50.343 160.04 49.9463V49.483ZM166.045 51.836H165.301V49.1832C165.301 48.1958 164.941 47.7022 164.221 47.7022C163.848 47.7022 163.539 47.843 163.294 48.1247C163.052 48.4034 162.931 48.7562 162.931 49.1832V51.836H162.187V47.1844H162.931V47.9567H162.95C163.301 47.3692 163.809 47.0753 164.475 47.0753C164.983 47.0753 165.372 47.2405 165.641 47.5706C165.91 47.8976 166.045 48.3716 166.045 48.9924V51.836ZM170.779 51.836H170.035V51.1092H170.017C169.693 51.6664 169.216 51.9451 168.587 51.9451C168.124 51.9451 167.761 51.8223 167.498 51.577C167.237 51.3317 167.107 51.0063 167.107 50.6005C167.107 49.7312 167.619 49.2256 168.641 49.0832L170.035 48.8878C170.035 48.0974 169.716 47.7022 169.077 47.7022C168.517 47.7022 168.012 47.8931 167.561 48.2747V47.5114C168.018 47.2208 168.545 47.0753 169.141 47.0753C170.233 47.0753 170.779 47.6538 170.779 48.8107V51.836ZM170.035 49.483L168.914 49.6374C168.569 49.6859 168.309 49.7721 168.133 49.8964C167.958 50.0174 167.87 50.234 167.87 50.5459C167.87 50.7731 167.95 50.9592 168.11 51.1047C168.274 51.2469 168.49 51.3182 168.759 51.3182C169.129 51.3182 169.433 51.1895 169.672 50.9321C169.914 50.6716 170.035 50.343 170.035 49.9463V49.483ZM176.149 51.4635C176.149 53.1716 175.332 54.0256 173.698 54.0256C173.123 54.0256 172.621 53.9165 172.191 53.6984V52.9534C172.714 53.2442 173.214 53.3895 173.689 53.3895C174.833 53.3895 175.404 52.7808 175.404 51.5635V51.0546H175.386C175.032 51.6483 174.5 51.9451 173.789 51.9451C173.211 51.9451 172.745 51.7391 172.391 51.3273C172.04 50.9124 171.864 50.3567 171.864 49.6601C171.864 48.8697 172.053 48.2413 172.431 47.775C172.813 47.3085 173.333 47.0753 173.993 47.0753C174.619 47.0753 175.084 47.3268 175.386 47.8295H175.404V47.1844H176.149V51.4635ZM175.404 49.7328V49.0468C175.404 48.6774 175.279 48.361 175.028 48.0974C174.78 47.834 174.469 47.7022 174.097 47.7022C173.637 47.7022 173.277 47.8704 173.017 48.2064C172.757 48.5396 172.627 49.0075 172.627 49.6102C172.627 50.128 172.751 50.5428 172.999 50.8548C173.25 51.1637 173.581 51.3182 173.993 51.3182C174.411 51.3182 174.749 51.1697 175.01 50.8729C175.273 50.5762 175.404 50.1962 175.404 49.7328ZM181.391 49.6965H178.11C178.122 50.2143 178.261 50.6141 178.527 50.8957C178.794 51.1774 179.16 51.3182 179.626 51.3182C180.149 51.3182 180.63 51.1456 181.069 50.8003V51.4999C180.661 51.7967 180.121 51.9451 179.449 51.9451C178.792 51.9451 178.276 51.7346 177.901 51.3136C177.526 50.8897 177.338 50.2945 177.338 49.5283C177.338 48.8046 177.542 48.2155 177.951 47.7613C178.362 47.3041 178.872 47.0753 179.481 47.0753C180.089 47.0753 180.559 47.2723 180.892 47.6659C181.225 48.0596 181.391 48.6063 181.391 49.3058V49.6965ZM180.629 49.0651C180.626 48.635 180.521 48.3003 180.316 48.0611C180.113 47.8218 179.83 47.7022 179.467 47.7022C179.116 47.7022 178.818 47.828 178.573 48.0793C178.328 48.3307 178.176 48.6593 178.119 49.0651H180.629ZM189.121 51.836H188.377V49.1649C188.377 48.6502 188.297 48.2777 188.136 48.0475C187.979 47.8174 187.713 47.7022 187.338 47.7022C187.02 47.7022 186.749 47.8476 186.525 48.1384C186.304 48.429 186.194 48.7774 186.194 49.1832V51.836H185.449V49.0741C185.449 48.1596 185.097 47.7022 184.392 47.7022C184.065 47.7022 183.796 47.8401 183.584 48.1157C183.372 48.3881 183.266 48.7441 183.266 49.1832V51.836H182.522V47.1844H183.266V47.9203H183.284C183.614 47.357 184.095 47.0753 184.728 47.0753C185.045 47.0753 185.322 47.1647 185.558 47.3434C185.794 47.5191 185.956 47.7507 186.044 48.0384C186.389 47.3964 186.903 47.0753 187.587 47.0753C188.61 47.0753 189.121 47.7068 189.121 48.9697V51.836ZM194.264 49.6965H190.982C190.994 50.2143 191.134 50.6141 191.4 50.8957C191.666 51.1774 192.032 51.3182 192.498 51.3182C193.022 51.3182 193.503 51.1456 193.942 50.8003V51.4999C193.533 51.7967 192.993 51.9451 192.321 51.9451C191.665 51.9451 191.149 51.7346 190.774 51.3136C190.398 50.8897 190.211 50.2945 190.211 49.5283C190.211 48.8046 190.415 48.2155 190.823 47.7613C191.235 47.3041 191.745 47.0753 192.353 47.0753C192.961 47.0753 193.432 47.2723 193.765 47.6659C194.098 48.0596 194.264 48.6063 194.264 49.3058V49.6965ZM193.502 49.0651C193.498 48.635 193.394 48.3003 193.188 48.0611C192.986 47.8218 192.703 47.7022 192.34 47.7022C191.989 47.7022 191.69 47.828 191.445 48.0793C191.2 48.3307 191.049 48.6593 190.991 49.0651H193.502ZM199.252 51.836H198.508V49.1832C198.508 48.1958 198.148 47.7022 197.428 47.7022C197.055 47.7022 196.747 47.843 196.502 48.1247C196.26 48.4034 196.139 48.7562 196.139 49.1832V51.836H195.394V47.1844H196.139V47.9567H196.157C196.508 47.3692 197.016 47.0753 197.682 47.0753C198.19 47.0753 198.579 47.2405 198.848 47.5706C199.118 47.8976 199.252 48.3716 199.252 48.9924V51.836ZM202.815 51.7905C202.64 51.8875 202.408 51.936 202.121 51.936C201.307 51.936 200.9 51.4816 200.9 50.5731V47.8203H200.101V47.1844H200.9V46.0487L201.644 45.808V47.1844H202.815V47.8203H201.644V50.4415C201.644 50.7533 201.697 50.976 201.803 51.1092C201.909 51.2425 202.085 51.309 202.33 51.309C202.517 51.309 202.679 51.2575 202.815 51.1546V51.7905Z" fill="#028ADE"/>
<path d="M118.095 13.2222V55.9999" stroke="#028ADE" stroke-width="2" stroke-miterlimit="10"/>
</g>
<g clip-path="url(#clip1)">
<path d="M35 69.8588C54.252 69.8588 69.8589 54.252 69.8589 35C69.8589 15.748 54.252 0.141113 35 0.141113C15.748 0.141113 0.141113 15.748 0.141113 35C0.141113 54.252 15.748 69.8588 35 69.8588Z" stroke="#028ADE" stroke-width="0.5" stroke-miterlimit="10"/>
<path d="M44.2025 49.4C48.2689 45.4981 45.7729 36.2982 38.6276 28.8515C31.4822 21.4048 22.3932 18.5312 18.3268 22.4331C14.2604 26.3349 16.7563 35.5348 23.9017 42.9815C31.0471 50.4282 40.136 53.3018 44.2025 49.4Z" stroke="#028ADE" stroke-width="0.2" stroke-miterlimit="10"/>
<path d="M55.4082 47.6966C59.3198 43.5964 56.4053 34.467 48.8985 27.3057C41.3917 20.1443 32.1352 17.6628 28.2236 21.7631C24.3121 25.8633 27.2266 34.9927 34.7334 42.154C42.2402 49.3154 51.4967 51.7969 55.4082 47.6966Z" stroke="#028ADE" stroke-width="0.2" stroke-miterlimit="10"/>
<path d="M45.44 48.7108C49.1822 44.4246 45.8426 35.3855 37.9807 28.5213C30.1187 21.6571 20.7117 19.5673 16.9695 23.8534C13.2273 28.1396 16.5669 37.1788 24.4289 44.0429C32.2908 50.9071 41.6978 52.997 45.44 48.7108Z" stroke="#028ADE" stroke-width="0.2" stroke-miterlimit="10"/>
<path d="M56.714 46.223C60.2785 41.7581 56.5167 32.8285 48.3117 26.2782C40.1067 19.7279 30.5657 18.0373 27.0012 22.5022C23.4367 26.9671 27.1985 35.8967 35.4035 42.4471C43.6085 48.9974 53.1495 50.6879 56.714 46.223Z" stroke="#028ADE" stroke-width="0.2" stroke-miterlimit="10"/>
<path d="M46.6254 47.9327C50.0008 43.3038 45.8143 34.5031 37.2744 28.2758C28.7346 22.0484 19.0753 20.7526 15.6999 25.3816C12.3245 30.0105 16.5111 38.8112 25.0509 45.0385C33.5907 51.2659 43.25 52.5616 46.6254 47.9327Z" stroke="#028ADE" stroke-width="0.2" stroke-miterlimit="10"/>
<path d="M57.9235 44.6676C61.1079 39.8771 56.5067 31.219 47.6463 25.3291C38.7859 19.4392 29.0216 18.5479 25.8372 23.3383C22.6528 28.1288 27.2541 36.7869 36.1144 42.6768C44.9748 48.5667 54.7391 49.458 57.9235 44.6676Z" stroke="#028ADE" stroke-width="0.2" stroke-miterlimit="10"/>
<path d="M47.7707 47.0644C50.7538 42.1283 45.7369 33.6334 36.5651 28.0904C27.3933 22.5475 17.5398 22.0555 14.5567 26.9916C11.5736 31.9277 16.5905 40.4226 25.7623 45.9656C34.9341 51.5085 44.7876 52.0005 47.7707 47.0644Z" stroke="#028ADE" stroke-width="0.2" stroke-miterlimit="10"/>
<path d="M59.0255 43.0148C61.7996 37.9491 56.3671 29.6362 46.8918 24.4475C37.4166 19.2589 27.4865 19.1593 24.7125 24.2251C21.9385 29.2908 27.3709 37.6037 36.8462 42.7924C46.3215 47.981 56.2515 48.0806 59.0255 43.0148Z" stroke="#028ADE" stroke-width="0.2" stroke-miterlimit="10"/>
<path d="M48.8532 46.1371C51.4187 40.9453 45.585 32.8261 35.8233 28.0024C26.0616 23.1788 16.0684 23.4772 13.5029 28.669C10.9374 33.8608 16.7711 41.98 26.5328 46.8036C36.2945 51.6273 46.2877 51.3289 48.8532 46.1371Z" stroke="#028ADE" stroke-width="0.2" stroke-miterlimit="10"/>
<path d="M60.0222 41.3069C62.3725 36.0054 56.1389 28.0994 46.0989 23.6483C36.059 19.1972 26.0147 19.8866 23.6643 25.188C21.314 30.4894 27.5477 38.3954 37.5876 42.8465C47.6276 47.2976 57.6719 46.6083 60.0222 41.3069Z" stroke="#028ADE" stroke-width="0.2" stroke-miterlimit="10"/>
<path d="M49.8698 45.1426C52.0037 39.7422 45.3835 32.0648 35.0831 27.9944C24.7826 23.9241 14.7025 25.0022 12.5685 30.4025C10.4345 35.8028 17.0548 43.4803 27.3552 47.5507C37.6557 51.621 47.7358 50.5429 49.8698 45.1426Z" stroke="#028ADE" stroke-width="0.2" stroke-miterlimit="10"/>
<path d="M60.8916 39.5501C62.8081 34.0605 55.8074 26.6239 45.2551 22.9399C34.7028 19.256 24.5948 20.7197 22.6784 26.2092C20.7619 31.6988 27.7626 39.1354 38.3149 42.8193C48.8671 46.5033 58.9751 45.0396 60.8916 39.5501Z" stroke="#028ADE" stroke-width="0.2" stroke-miterlimit="10"/>
<path d="M50.8276 44.0986C52.5266 38.5295 45.1587 31.3469 34.3709 28.0559C23.5831 24.7648 13.4605 26.6116 11.7616 32.1807C10.0626 37.7498 17.4305 44.9323 28.2183 48.2234C39.0061 51.5144 49.1287 49.6677 50.8276 44.0986Z" stroke="#028ADE" stroke-width="0.2" stroke-miterlimit="10"/>
<path d="M61.6402 37.753C63.1197 32.1216 55.3904 25.2107 44.3764 22.3171C33.3624 19.4236 23.2344 21.643 21.755 27.2744C20.2755 32.9058 28.0048 39.8167 39.0188 42.7102C50.0328 45.6038 60.1608 43.3843 61.6402 37.753Z" stroke="#028ADE" stroke-width="0.2" stroke-miterlimit="10"/>
<path d="M51.7103 43.0043C52.9715 37.3199 44.8948 30.6931 33.6706 28.2029C22.4465 25.7128 12.3251 28.3022 11.064 33.9866C9.80286 39.671 17.8795 46.2977 29.1037 48.7879C40.3279 51.2781 50.4492 48.6887 51.7103 43.0043Z" stroke="#028ADE" stroke-width="0.2" stroke-miterlimit="10"/>
<path d="M62.2625 35.9308C63.309 30.1951 54.9015 23.8566 43.4837 21.7734C32.066 19.6901 21.9617 22.651 20.9151 28.3868C19.8686 34.1225 28.2762 40.461 39.6939 42.5443C51.1117 44.6275 61.216 41.6666 62.2625 35.9308Z" stroke="#028ADE" stroke-width="0.2" stroke-miterlimit="10"/>
<path d="M52.5255 41.8793C53.3575 36.1086 44.6257 30.0744 33.0226 28.4016C21.4195 26.7288 11.3389 30.0508 10.5069 35.8215C9.67493 41.5922 18.4067 47.6264 30.0098 49.2992C41.6129 50.972 51.6936 47.65 52.5255 41.8793Z" stroke="#028ADE" stroke-width="0.2" stroke-miterlimit="10"/>
<path d="M62.7552 34.0936C63.375 28.2966 54.3342 22.577 42.5621 21.3185C30.7899 20.0599 20.7443 23.739 20.1246 29.5359C19.5048 35.3329 28.5456 41.0525 40.3178 42.311C52.0899 43.5696 62.1355 39.8905 62.7552 34.0936Z" stroke="#028ADE" stroke-width="0.2" stroke-miterlimit="10"/>
<path d="M53.2731 40.715C53.6833 34.8994 44.3473 29.503 32.4207 28.6619C20.4941 27.8207 10.4931 31.8533 10.083 37.6689C9.67283 43.4845 19.0088 48.8809 30.9354 49.722C42.862 50.5632 52.863 46.5306 53.2731 40.715Z" stroke="#028ADE" stroke-width="0.2" stroke-miterlimit="10"/>
<path d="M63.1326 32.2419C63.3362 26.4153 53.7197 21.35 41.6535 20.9284C29.5873 20.5067 19.6406 24.8883 19.437 30.715C19.2334 36.5417 28.8499 41.607 40.9161 42.0286C52.9823 42.4502 62.929 38.0686 63.1326 32.2419Z" stroke="#028ADE" stroke-width="0.2" stroke-miterlimit="10"/>
<path d="M31.8531 50.0724C44.0512 50.0724 53.9397 45.3461 53.9397 39.5159C53.9397 33.6858 44.0512 28.9595 31.8531 28.9595C19.6549 28.9595 9.76636 33.6858 9.76636 39.5159C9.76636 45.3461 19.6549 50.0724 31.8531 50.0724Z" stroke="#028ADE" stroke-width="0.2" stroke-miterlimit="10"/>
<path d="M41.445 41.7111C53.7604 41.2881 63.5819 36.2217 63.3817 30.3951C63.1816 24.5684 53.0357 20.1878 40.7203 20.6108C28.4048 21.0338 18.5834 26.1002 18.7835 31.9268C18.9836 37.7535 29.1295 42.1341 41.445 41.7111Z" stroke="#028ADE" stroke-width="0.2" stroke-miterlimit="10"/>
<path d="M32.7847 50.3736C45.2037 49.5258 54.9493 44.1232 54.5522 38.3064C54.1552 32.4897 43.7657 28.4615 31.3468 29.3092C18.9279 30.157 9.18224 35.5596 9.57931 41.3764C9.97637 47.1932 20.3658 51.2213 32.7847 50.3736Z" stroke="#028ADE" stroke-width="0.2" stroke-miterlimit="10"/>
<path d="M41.9425 41.3542C54.4507 40.0807 64.1118 34.3461 63.5212 28.5456C62.9306 22.7452 52.3119 19.0755 39.8038 20.349C27.2956 21.6226 17.6345 27.3572 18.2251 33.1576C18.8157 38.9581 29.4344 42.6278 41.9425 41.3542Z" stroke="#028ADE" stroke-width="0.2" stroke-miterlimit="10"/>
<path d="M33.704 50.5997C46.2867 48.8995 55.8542 42.8376 55.0735 37.0599C54.2929 31.2822 43.4597 27.9767 30.877 29.6768C18.2943 31.3769 8.72684 37.4389 9.5075 43.2166C10.2882 48.9943 21.1213 52.2998 33.704 50.5997Z" stroke="#028ADE" stroke-width="0.2" stroke-miterlimit="10"/>
<path d="M42.3664 40.964C55.0098 38.8369 64.4753 32.452 63.5081 26.7028C62.5408 20.9537 51.5072 18.0175 38.8637 20.1446C26.2203 22.2717 16.7548 28.6567 17.722 34.4058C18.6892 40.1549 29.7229 43.0912 42.3664 40.964Z" stroke="#028ADE" stroke-width="0.2" stroke-miterlimit="10"/>
<path d="M34.6416 50.7798C47.333 48.2255 56.6876 41.5154 55.5358 35.7925C54.3839 30.0695 43.1618 27.5008 30.4705 30.0552C17.7791 32.6095 8.42447 39.3195 9.57629 45.0425C10.7281 50.7655 21.9502 53.3341 34.6416 50.7798Z" stroke="#028ADE" stroke-width="0.2" stroke-miterlimit="10"/>
<path d="M42.7567 40.5636C55.4827 37.5821 64.7197 30.5574 63.388 24.8736C62.0564 19.1898 50.6604 16.9991 37.9344 19.9806C25.2083 22.9622 15.9714 29.9868 17.303 35.6706C18.6346 41.3545 30.0306 43.5451 42.7567 40.5636Z" stroke="#028ADE" stroke-width="0.2" stroke-miterlimit="10"/>
<path d="M35.5754 50.9149C48.3164 47.5084 57.4209 40.1686 55.9109 34.521C54.401 28.8735 42.8483 27.0567 30.1074 30.4632C17.3664 33.8696 8.2619 41.2094 9.77186 46.857C11.2818 52.5045 22.8345 54.3213 35.5754 50.9149Z" stroke="#028ADE" stroke-width="0.2" stroke-miterlimit="10"/>
<path d="M43.0998 40.1573C55.8494 36.3246 64.8207 28.6791 63.1377 23.0806C61.4547 17.4822 49.7547 16.0507 37.0051 19.8835C24.2555 23.7162 15.2843 31.3617 16.9673 36.9602C18.6502 42.5587 30.3502 43.9901 43.0998 40.1573Z" stroke="#028ADE" stroke-width="0.2" stroke-miterlimit="10"/>
<path d="M36.5059 50.9762C49.2426 46.7204 58.0639 38.77 56.2089 33.2184C54.354 27.6669 42.5251 26.6166 29.7884 30.8725C17.0517 35.1283 8.23033 43.0788 10.0853 48.6303C11.9403 54.1818 23.7692 55.2321 36.5059 50.9762Z" stroke="#028ADE" stroke-width="0.2" stroke-miterlimit="10"/>
<path d="M43.3942 39.7558C56.115 35.0754 64.7865 26.822 62.7626 21.3211C60.7387 15.8202 48.7857 15.155 36.065 19.8353C23.3442 24.5157 14.6727 32.7692 16.6966 38.27C18.7205 43.7709 30.6735 44.4361 43.3942 39.7558Z" stroke="#028ADE" stroke-width="0.2" stroke-miterlimit="10"/>
<path d="M37.4442 51.013C50.1284 45.9109 58.6354 37.3605 56.445 31.9151C54.2546 26.4697 42.1964 26.1914 29.5122 31.2935C16.828 36.3956 8.32105 44.9461 10.5114 50.3915C12.7018 55.8369 24.76 56.1152 37.4442 51.013Z" stroke="#028ADE" stroke-width="0.2" stroke-miterlimit="10"/>
<path d="M43.6502 39.3301C56.2843 33.8093 64.6187 24.9684 62.2656 19.5834C59.9124 14.1983 47.7629 14.3084 35.1288 19.8292C22.4947 25.35 14.1603 34.1909 16.5134 39.5759C18.8665 44.9609 31.0161 44.8509 43.6502 39.3301Z" stroke="#028ADE" stroke-width="0.2" stroke-miterlimit="10"/>
<path d="M38.385 50.9952C50.9509 45.0597 59.0975 35.9288 56.5808 30.6007C54.0641 25.2727 41.8372 25.7652 29.2712 31.7007C16.7053 37.6363 8.55874 46.7672 11.0754 52.0952C13.5921 57.4233 25.819 56.9308 38.385 50.9952Z" stroke="#028ADE" stroke-width="0.2" stroke-miterlimit="10"/>
<path d="M43.862 38.9069C56.3473 32.5592 64.301 23.1497 61.6269 17.8901C58.9529 12.6306 46.6638 13.5127 34.1785 19.8604C21.6931 26.2082 13.7395 35.6177 16.4135 40.8772C19.0875 46.1368 31.3766 45.2546 43.862 38.9069Z" stroke="#028ADE" stroke-width="0.2" stroke-miterlimit="10"/>
<path d="M39.328 50.9399C51.7215 44.1828 59.4726 34.4943 56.6407 29.3002C53.8087 24.106 41.4661 25.373 29.0727 32.1302C16.6792 38.8873 8.92807 48.5757 11.76 53.7699C14.592 58.964 26.9346 57.697 39.328 50.9399Z" stroke="#028ADE" stroke-width="0.2" stroke-miterlimit="10"/>
<path d="M44.0488 38.5098C56.3375 31.3462 63.878 21.385 60.8909 16.2608C57.9038 11.1366 45.5203 12.7898 33.2316 19.9533C20.9429 27.1169 13.4025 37.0781 16.3896 42.2023C19.3767 47.3265 31.7602 45.6733 44.0488 38.5098Z" stroke="#028ADE" stroke-width="0.2" stroke-miterlimit="10"/>
<path d="M40.2737 50.8208C52.4394 43.2567 59.756 33.0307 56.616 27.9805C53.4759 22.9302 41.0682 24.9681 28.9026 32.5322C16.7369 40.0963 9.42028 50.3223 12.5603 55.3726C15.7004 60.4228 28.1081 58.385 40.2737 50.8208Z" stroke="#028ADE" stroke-width="0.2" stroke-miterlimit="10"/>
<path d="M44.2078 38.1026C56.2388 30.1401 63.324 19.6545 60.0332 14.6822C56.7424 9.70994 44.3217 12.134 32.2908 20.0964C20.2598 28.0588 13.1746 38.5445 16.4654 43.5168C19.7561 48.489 32.1769 46.065 44.2078 38.1026Z" stroke="#028ADE" stroke-width="0.2" stroke-miterlimit="10"/>
<path d="M41.2377 50.6674C53.1158 42.315 59.9536 31.5745 56.5104 26.678C53.0672 21.7814 40.6469 24.5828 28.7689 32.9352C16.8908 41.2876 10.053 52.0281 13.4961 56.9247C16.9393 61.8212 29.3596 59.0198 41.2377 50.6674Z" stroke="#028ADE" stroke-width="0.2" stroke-miterlimit="10"/>
</g>
<defs>
<clipPath id="clip0">
<rect width="122.889" height="42.7778" fill="white" transform="translate(81.6667 13.2222)"/>
</clipPath>
<clipPath id="clip1">
<rect width="70" height="70" fill="white"/>
</clipPath>
</defs>
</svg>
