<svg width="929" height="928" viewBox="0 0 929 928" fill="none" xmlns="http://www.w3.org/2000/svg">
<g opacity="0.24">
<path d="M272.762 414.997C307.049 352.673 427.365 353.05 541.496 415.838C655.627 478.626 720.354 580.049 686.067 642.373C651.78 704.697 531.464 704.32 417.333 641.532C303.202 578.744 238.475 477.321 272.762 414.997Z" stroke="#028ADE" stroke-width="0.5" stroke-miterlimit="10"/>
<path d="M256.921 272.81C294.132 211.726 414.957 217.436 526.79 285.563C638.623 353.69 699.116 458.436 661.904 519.52C624.693 580.603 503.868 574.894 392.035 506.767C280.202 438.64 219.71 333.894 256.921 272.81Z" stroke="#028ADE" stroke-width="0.5" stroke-miterlimit="10"/>
<path d="M277.121 397.656C317.152 338.029 438.265 349.217 547.635 422.644C657.005 496.071 713.215 603.932 673.183 663.559C633.152 723.185 512.039 711.998 402.669 638.57C293.3 565.143 237.09 457.282 277.121 397.656Z" stroke="#028ADE" stroke-width="0.5" stroke-miterlimit="10"/>
<path d="M270.623 252.078C313.414 194.034 434.571 210.727 541.235 289.362C647.899 367.996 699.678 478.796 656.888 536.839C614.097 594.883 492.94 578.191 386.276 499.556C279.612 420.921 227.833 310.121 270.623 252.078Z" stroke="#028ADE" stroke-width="0.5" stroke-miterlimit="10"/>
<path d="M282.735 380.662C328.143 324.387 449.116 346.679 552.937 430.452C656.757 514.225 704.109 627.756 658.702 684.03C613.294 740.304 492.32 718.012 388.5 634.239C284.68 550.466 237.327 436.936 282.735 380.662Z" stroke="#028ADE" stroke-width="0.5" stroke-miterlimit="10"/>
<path d="M285.634 232.25C333.635 177.776 454.225 205.59 554.979 294.373C655.732 383.156 698.496 499.288 650.495 553.761C602.493 608.235 481.904 580.421 381.15 491.638C280.397 402.855 237.633 286.723 285.634 232.25Z" stroke="#028ADE" stroke-width="0.5" stroke-miterlimit="10"/>
<path d="M289.582 363.864C340.017 311.369 459.975 344.783 557.516 438.496C655.056 532.209 693.243 650.734 642.809 703.229C592.374 755.723 472.416 722.309 374.875 628.596C277.335 534.883 239.148 416.358 289.582 363.864Z" stroke="#028ADE" stroke-width="0.5" stroke-miterlimit="10"/>
<path d="M302.183 213.415C354.882 163.046 473.977 202.121 568.19 300.691C662.402 399.262 696.056 520.001 643.357 570.37C590.658 620.739 471.563 581.665 377.35 483.094C283.137 384.524 249.484 263.784 302.183 213.415Z" stroke="#028ADE" stroke-width="0.5" stroke-miterlimit="10"/>
<path d="M297.349 347.635C352.265 299.396 470.31 343.996 561.009 447.251C651.708 550.506 680.715 673.315 625.799 721.554C570.882 769.792 452.837 725.193 362.138 621.938C271.44 518.683 242.432 395.873 297.349 347.635Z" stroke="#028ADE" stroke-width="0.5" stroke-miterlimit="10"/>
<path d="M319.753 195.685C376.709 149.712 493.461 199.884 580.527 307.748C667.592 415.613 692 540.323 635.044 586.296C578.088 632.269 461.336 582.097 374.271 474.233C287.206 366.368 262.797 241.658 319.753 195.685Z" stroke="#028ADE" stroke-width="0.5" stroke-miterlimit="10"/>
<path d="M306.152 331.991C365.02 288.332 480.249 343.963 563.524 456.248C646.798 568.532 666.583 694.948 607.714 738.607C548.846 782.266 433.617 726.634 350.343 614.35C267.069 502.066 247.284 375.649 306.152 331.991Z" stroke="#028ADE" stroke-width="0.5" stroke-miterlimit="10"/>
<path d="M338.331 179.346C398.998 138.047 512.533 199.104 591.919 315.721C671.305 432.338 686.481 560.353 625.814 601.652C565.147 642.951 451.612 581.893 372.226 465.276C292.839 348.66 277.664 220.644 338.331 179.346Z" stroke="#028ADE" stroke-width="0.5" stroke-miterlimit="10"/>
<path d="M315.755 316.905C378.102 277.998 489.74 344.363 565.105 465.135C640.47 585.906 651.023 715.351 588.676 754.258C526.329 793.164 414.691 726.799 339.326 606.028C263.961 485.256 253.408 355.811 315.755 316.905Z" stroke="#028ADE" stroke-width="0.5" stroke-miterlimit="10"/>
<path d="M357.795 164.35C421.618 127.916 531.124 199.573 602.382 324.401C673.641 449.229 679.667 579.958 615.844 616.392C552.02 652.826 442.514 581.168 371.256 456.34C299.998 331.512 293.971 200.783 357.795 164.35Z" stroke="#028ADE" stroke-width="0.5" stroke-miterlimit="10"/>
<path d="M326.212 302.568C391.395 268.622 498.572 345.443 565.598 474.151C632.625 602.859 634.12 734.716 568.937 768.661C503.754 802.606 396.576 725.785 329.55 597.077C262.523 468.369 261.029 336.513 326.212 302.568Z" stroke="#028ADE" stroke-width="0.5" stroke-miterlimit="10"/>
<path d="M377.974 150.809C444.484 119.312 549.228 201.109 611.926 333.507C674.623 465.904 671.533 598.766 605.023 630.262C538.513 661.759 433.769 579.962 371.071 447.565C308.374 315.167 311.464 182.305 377.974 150.809Z" stroke="#028ADE" stroke-width="0.5" stroke-miterlimit="10"/>
<path d="M337.265 288.952C404.902 259.958 506.994 346.701 565.294 482.699C623.594 618.697 616.024 752.45 548.386 781.445C480.749 810.44 378.657 723.697 320.357 587.698C262.057 451.7 269.627 317.947 337.265 288.952Z" stroke="#028ADE" stroke-width="0.5" stroke-miterlimit="10"/>
<path d="M398.771 138.8C467.421 112.307 566.688 203.846 620.489 343.258C674.29 482.67 662.252 617.162 593.601 643.655C524.951 670.149 425.684 578.61 371.883 439.198C318.082 299.786 330.12 165.293 398.771 138.8Z" stroke="#028ADE" stroke-width="0.5" stroke-miterlimit="10"/>
<path d="M349.018 276.037C418.58 252.038 514.87 348.231 564.087 490.891C613.304 633.55 596.81 768.653 527.247 792.652C457.685 816.651 361.395 720.457 312.178 577.798C262.961 435.139 279.455 300.036 349.018 276.037Z" stroke="#028ADE" stroke-width="0.5" stroke-miterlimit="10"/>
<path d="M420.11 128.15C490.483 106.633 583.653 207.328 628.211 353.06C672.769 498.791 651.843 634.372 581.47 655.889C511.098 677.406 417.928 576.71 373.37 430.979C328.812 285.248 349.738 149.666 420.11 128.15Z" stroke="#028ADE" stroke-width="0.5" stroke-miterlimit="10"/>
<path d="M304.907 567.755C265.058 419.037 290.376 283.038 361.457 263.993C432.537 244.947 522.462 350.066 562.311 498.784C602.16 647.501 576.842 783.5 505.761 802.546C434.681 821.592 344.756 716.472 304.907 567.755Z" stroke="#028ADE" stroke-width="0.5" stroke-miterlimit="10"/>
<path d="M375.513 423.497C340.438 271.967 370.121 135.675 441.813 119.081C513.504 102.486 600.055 211.873 635.13 363.402C670.205 514.932 640.522 651.223 568.83 667.818C497.139 684.412 410.588 575.026 375.513 423.497Z" stroke="#028ADE" stroke-width="0.5" stroke-miterlimit="10"/>
<path d="M298.193 557.378C267.958 403.2 301.989 266.733 374.203 252.572C446.417 238.411 529.468 351.918 559.702 506.096C589.936 660.275 555.905 796.741 483.691 810.902C411.478 825.063 328.427 711.557 298.193 557.378Z" stroke="#028ADE" stroke-width="0.5" stroke-miterlimit="10"/>
<path d="M378.237 416.263C352.903 259.606 391.257 123.086 463.904 111.338C536.551 99.5895 615.981 217.061 641.315 373.719C666.65 530.376 628.295 666.896 555.648 678.644C483.001 690.393 403.571 572.921 378.237 416.263Z" stroke="#028ADE" stroke-width="0.5" stroke-miterlimit="10"/>
<path d="M292.432 546.91C272.055 387.95 314.707 251.503 387.697 242.146C460.688 232.789 536.378 354.066 556.755 513.026C577.133 671.986 534.481 808.433 461.49 817.79C388.5 827.147 312.81 705.87 292.432 546.91Z" stroke="#028ADE" stroke-width="0.5" stroke-miterlimit="10"/>
<path d="M381.612 409.821C366.242 248.725 413.165 112.466 486.417 105.477C559.669 98.488 631.511 223.416 646.881 384.512C662.251 545.607 615.329 681.866 542.077 688.855C468.825 695.844 396.982 570.916 381.612 409.821Z" stroke="#028ADE" stroke-width="0.5" stroke-miterlimit="10"/>
<path d="M287.172 536.066C276.854 372.991 328.102 237.021 401.638 232.368C475.174 227.716 543.151 356.142 553.469 519.217C563.787 682.292 512.539 818.262 439.003 822.915C365.467 827.568 297.49 699.141 287.172 536.066Z" stroke="#028ADE" stroke-width="0.5" stroke-miterlimit="10"/>
<path d="M385.219 403.755C379.996 238.862 435.464 103.298 509.11 100.965C582.757 98.6325 646.693 230.414 651.916 395.307C657.139 560.2 601.671 695.764 528.025 698.096C454.378 700.429 390.442 568.648 385.219 403.755Z" stroke="#028ADE" stroke-width="0.5" stroke-miterlimit="10"/>
<path d="M282.476 525.123C282.385 358.659 342.127 223.682 415.914 223.641C489.701 223.601 549.591 358.513 549.682 524.977C549.773 691.44 490.03 826.418 416.243 826.458C342.456 826.499 282.567 691.586 282.476 525.123Z" stroke="#028ADE" stroke-width="0.5" stroke-miterlimit="10"/>
<path d="M389.049 398.244C394.127 230.283 458.032 95.931 531.786 98.1607C605.539 100.39 661.212 238.358 656.134 406.319C651.057 574.28 587.151 708.632 513.398 706.403C439.644 704.173 383.972 566.206 389.049 398.244Z" stroke="#028ADE" stroke-width="0.5" stroke-miterlimit="10"/>
<path d="M278.689 513.981C288.967 344.794 357.08 211.274 430.822 215.754C504.565 220.234 556.013 361.018 545.735 530.204C535.456 699.391 467.343 832.911 393.601 828.431C319.858 823.951 268.41 683.167 278.689 513.981Z" stroke="#028ADE" stroke-width="0.5" stroke-miterlimit="10"/>
<path d="M392.982 393.343C408.488 222.964 480.785 90.2806 554.462 96.9857C628.139 103.691 675.297 247.246 659.791 417.624C644.286 588.003 571.989 720.687 498.311 713.981C424.634 707.276 377.477 563.722 392.982 393.343Z" stroke="#028ADE" stroke-width="0.5" stroke-miterlimit="10"/>
<path d="M275.176 502.659C295.944 331.348 372.399 199.701 445.943 208.616C519.488 217.532 562.272 363.634 541.505 534.945C520.737 706.256 444.282 837.903 370.738 828.988C297.193 820.072 254.409 673.97 275.176 502.659Z" stroke="#028ADE" stroke-width="0.5" stroke-miterlimit="10"/>
<path d="M397.335 388.831C423.37 216.763 503.93 86.2705 577.271 97.3676C650.611 108.465 688.959 256.949 662.924 429.017C636.888 601.085 556.328 731.577 482.988 720.48C409.648 709.383 371.3 560.899 397.335 388.831Z" stroke="#028ADE" stroke-width="0.5" stroke-miterlimit="10"/>
<path d="M272.317 491.132C303.631 318.54 388.341 189.39 461.52 202.668C534.7 215.945 568.638 366.622 537.324 539.214C506.009 711.806 421.299 840.955 348.12 827.678C274.94 814.4 241.002 663.723 272.317 491.132Z" stroke="#028ADE" stroke-width="0.5" stroke-miterlimit="10"/>
<path d="M401.803 384.866C438.406 211.911 527.142 84.2024 600.001 99.6217C672.86 115.041 702.251 267.749 665.647 440.704C629.044 613.66 540.308 741.368 467.449 725.948C394.59 710.529 365.199 557.821 401.803 384.866Z" stroke="#028ADE" stroke-width="0.5" stroke-miterlimit="10"/>
<path d="M269.912 479.453C311.806 306.281 404.605 180.13 477.182 197.689C549.76 215.247 574.633 369.865 532.738 543.037C490.844 716.21 398.046 842.36 325.468 824.802C252.891 807.244 228.017 652.626 269.912 479.453Z" stroke="#028ADE" stroke-width="0.5" stroke-miterlimit="10"/>
<path d="M406.035 381.292C453.227 208.069 550.039 83.5968 622.271 103.275C694.503 122.954 714.801 279.331 667.609 452.554C620.417 625.777 523.605 750.25 451.374 730.571C379.142 710.893 358.843 554.515 406.035 381.292Z" stroke="#028ADE" stroke-width="0.5" stroke-miterlimit="10"/>
<path d="M268.272 467.535C320.75 294.503 421.521 171.894 493.351 193.679C565.181 215.463 580.868 373.393 528.39 546.425C475.913 719.456 375.141 842.065 303.312 820.281C231.482 798.496 215.794 640.566 268.272 467.535Z" stroke="#028ADE" stroke-width="0.5" stroke-miterlimit="10"/>
<path d="M410.479 378.023C468.253 205.333 572.946 84.696 644.317 108.573C715.688 132.451 726.711 291.801 668.937 464.491C611.163 637.182 506.47 757.818 435.099 733.941C363.728 710.063 352.705 550.714 410.479 378.023Z" stroke="#028ADE" stroke-width="0.5" stroke-miterlimit="10"/>
<path d="M266.994 455.282C330.021 283.182 438.629 164.73 509.575 190.712C580.522 216.695 586.941 377.272 523.913 549.373C460.886 721.473 352.278 839.925 281.332 813.943C210.385 787.96 203.966 627.383 266.994 455.282Z" stroke="#028ADE" stroke-width="0.5" stroke-miterlimit="10"/>
</g>
</svg>
