<svg width="1302" height="1301" viewBox="0 0 1302 1301" fill="none" xmlns="http://www.w3.org/2000/svg">
<g opacity="0.24">
<path d="M382.292 581.645C430.347 494.295 598.979 494.822 758.941 582.824C918.903 670.825 1009.62 812.977 961.566 900.327C913.51 987.678 744.879 987.151 584.917 899.149C424.955 811.148 334.237 668.996 382.292 581.645Z" stroke="#028ADE" stroke-width="0.5" stroke-miterlimit="10"/>
<path d="M360.09 382.361C412.244 296.748 581.587 304.75 738.329 400.235C895.07 495.719 979.854 642.527 927.7 728.14C875.546 813.753 706.203 805.751 549.462 710.266C392.72 614.782 307.936 467.974 360.09 382.361Z" stroke="#028ADE" stroke-width="0.5" stroke-miterlimit="10"/>
<path d="M388.402 557.341C444.508 473.77 614.256 489.45 767.545 592.363C920.833 695.276 999.615 846.45 943.509 930.021C887.403 1013.59 717.655 997.911 564.366 894.998C411.077 792.086 332.295 640.911 388.402 557.341Z" stroke="#028ADE" stroke-width="0.5" stroke-miterlimit="10"/>
<path d="M379.295 353.304C439.269 271.953 609.078 295.348 758.575 405.56C908.071 515.771 980.643 671.064 920.669 752.416C860.695 833.768 690.886 810.372 541.389 700.161C391.893 589.949 319.321 434.656 379.295 353.304Z" stroke="#028ADE" stroke-width="0.5" stroke-miterlimit="10"/>
<path d="M396.27 533.523C459.912 454.651 629.464 485.894 774.975 603.307C920.486 720.72 986.853 879.841 923.211 958.713C859.569 1037.58 690.017 1006.34 544.507 888.928C398.996 771.515 332.628 612.395 396.27 533.523Z" stroke="#028ADE" stroke-width="0.5" stroke-miterlimit="10"/>
<path d="M400.334 325.512C467.611 249.165 636.625 288.147 777.837 412.582C919.05 537.017 978.986 699.784 911.709 776.132C844.432 852.48 675.418 813.497 534.206 689.062C392.993 564.627 333.057 401.86 400.334 325.512Z" stroke="#028ADE" stroke-width="0.5" stroke-miterlimit="10"/>
<path d="M405.867 509.978C476.554 436.403 644.683 483.235 781.393 614.58C918.102 745.925 971.624 912.045 900.936 985.62C830.249 1059.19 662.12 1012.36 525.411 881.017C388.701 749.672 335.179 583.552 405.867 509.978Z" stroke="#028ADE" stroke-width="0.5" stroke-miterlimit="10"/>
<path d="M423.527 299.115C497.388 228.52 664.308 283.286 796.353 421.438C928.399 559.591 975.566 728.815 901.706 799.411C827.845 870.007 660.925 815.241 528.88 677.088C396.834 538.935 349.666 369.711 423.527 299.115Z" stroke="#028ADE" stroke-width="0.5" stroke-miterlimit="10"/>
<path d="M416.753 487.233C493.722 419.623 659.169 482.132 786.289 626.851C913.41 771.569 954.065 943.695 877.096 1011.3C800.127 1078.91 634.68 1016.4 507.56 871.686C380.439 726.968 339.783 554.842 416.753 487.233Z" stroke="#028ADE" stroke-width="0.5" stroke-miterlimit="10"/>
<path d="M448.154 274.265C527.982 209.83 691.617 280.15 813.645 431.329C935.672 582.507 969.882 757.296 890.055 821.731C810.227 886.166 646.591 815.846 524.564 664.667C402.536 513.488 368.327 338.699 448.154 274.265Z" stroke="#028ADE" stroke-width="0.5" stroke-miterlimit="10"/>
<path d="M429.09 465.307C511.598 404.117 673.099 482.088 789.813 639.461C906.528 796.835 934.257 974.016 851.75 1035.21C769.242 1096.4 607.741 1018.43 491.027 861.053C374.313 703.679 346.583 526.498 429.09 465.307Z" stroke="#028ADE" stroke-width="0.5" stroke-miterlimit="10"/>
<path d="M474.192 251.365C559.22 193.482 718.347 279.058 829.612 442.504C940.877 605.95 962.146 785.372 877.118 843.254C792.089 901.137 632.962 815.561 521.697 652.115C410.432 488.669 389.163 309.247 474.192 251.365Z" stroke="#028ADE" stroke-width="0.5" stroke-miterlimit="10"/>
<path d="M442.55 444.162C529.933 389.632 686.401 482.647 792.03 651.916C897.659 821.185 912.45 1002.61 825.066 1057.14C737.683 1111.67 581.215 1018.66 475.586 849.386C369.957 680.117 355.166 498.692 442.55 444.162Z" stroke="#028ADE" stroke-width="0.5" stroke-miterlimit="10"/>
<path d="M501.471 230.347C590.924 179.282 744.403 279.715 844.276 454.67C944.149 629.624 952.596 812.849 863.143 863.913C773.69 914.978 620.211 814.545 520.338 639.59C420.465 464.636 412.018 281.411 501.471 230.347Z" stroke="#028ADE" stroke-width="0.5" stroke-miterlimit="10"/>
<path d="M457.206 424.067C548.564 376.491 698.78 484.16 792.722 664.553C886.664 844.946 888.759 1029.75 797.401 1077.33C706.043 1124.9 555.827 1017.23 461.885 836.841C367.943 656.449 365.848 471.644 457.206 424.067Z" stroke="#028ADE" stroke-width="0.5" stroke-miterlimit="10"/>
<path d="M529.755 211.368C622.973 167.224 769.778 281.868 857.653 467.431C945.528 652.995 941.196 839.21 847.978 883.354C754.76 927.498 607.955 812.855 520.08 627.291C432.205 441.727 436.537 255.512 529.755 211.368Z" stroke="#028ADE" stroke-width="0.5" stroke-miterlimit="10"/>
<path d="M472.697 404.985C567.496 364.347 710.585 485.923 792.295 676.533C874.006 867.144 863.397 1054.61 768.598 1095.25C673.8 1135.88 530.711 1014.31 449 823.697C367.29 633.087 377.899 445.623 472.697 404.985Z" stroke="#028ADE" stroke-width="0.5" stroke-miterlimit="10"/>
<path d="M558.901 194.537C655.119 157.406 794.248 285.703 869.653 481.098C945.059 676.493 928.187 864.993 831.969 902.125C735.751 939.257 596.622 810.959 521.217 615.564C445.811 420.169 462.683 231.669 558.901 194.537Z" stroke="#028ADE" stroke-width="0.5" stroke-miterlimit="10"/>
<path d="M489.17 386.884C586.666 353.248 721.623 488.069 790.603 688.015C859.584 887.961 836.467 1077.32 738.971 1110.95C641.474 1144.59 506.518 1009.77 437.537 809.821C368.557 609.875 391.673 420.52 489.17 386.884Z" stroke="#028ADE" stroke-width="0.5" stroke-miterlimit="10"/>
<path d="M588.811 179.611C687.443 149.454 818.026 290.585 880.477 494.837C942.929 699.089 913.599 889.115 814.967 919.272C716.336 949.429 585.753 808.298 523.301 604.046C460.85 399.794 490.18 209.769 588.811 179.611Z" stroke="#028ADE" stroke-width="0.5" stroke-miterlimit="10"/>
<path d="M427.345 795.746C371.495 587.309 406.98 396.697 506.604 370.003C606.227 343.309 732.264 490.641 788.114 699.078C843.965 907.515 808.48 1098.13 708.856 1124.82C609.233 1151.51 483.196 1004.18 427.345 795.746Z" stroke="#028ADE" stroke-width="0.5" stroke-miterlimit="10"/>
<path d="M526.304 593.558C477.144 381.179 518.748 190.158 619.228 166.899C719.708 143.641 841.015 296.953 890.175 509.331C939.335 721.71 897.731 912.731 797.251 935.99C696.771 959.248 575.464 805.936 526.304 593.558Z" stroke="#028ADE" stroke-width="0.5" stroke-miterlimit="10"/>
<path d="M417.936 781.201C375.56 565.11 423.257 373.844 524.469 353.996C625.682 334.148 742.083 493.235 784.458 709.326C826.833 925.417 779.137 1116.68 677.924 1136.53C576.712 1156.38 460.311 997.292 417.936 781.201Z" stroke="#028ADE" stroke-width="0.5" stroke-miterlimit="10"/>
<path d="M530.122 583.42C494.615 363.855 548.371 172.513 650.191 156.047C752.01 139.581 863.336 304.226 898.843 523.791C934.351 743.357 880.595 934.698 778.775 951.164C676.956 967.63 565.63 802.985 530.122 583.42Z" stroke="#028ADE" stroke-width="0.5" stroke-miterlimit="10"/>
<path d="M409.862 766.529C381.302 543.737 441.08 352.497 543.382 339.383C645.683 326.268 751.767 496.246 780.327 719.039C808.888 941.831 749.109 1133.07 646.807 1146.19C544.506 1159.3 438.422 989.322 409.862 766.529Z" stroke="#028ADE" stroke-width="0.5" stroke-miterlimit="10"/>
<path d="M534.854 574.391C513.312 348.605 579.076 157.629 681.744 147.833C784.411 138.038 885.103 313.132 906.645 538.918C928.187 764.704 862.422 955.68 759.755 965.476C657.087 975.271 556.396 800.176 534.854 574.391Z" stroke="#028ADE" stroke-width="0.5" stroke-miterlimit="10"/>
<path d="M402.489 751.331C388.028 522.771 459.855 332.2 562.921 325.679C665.986 319.158 761.26 499.156 775.722 727.716C790.183 956.276 718.356 1146.85 615.29 1153.37C512.225 1159.89 416.951 979.891 402.489 751.331Z" stroke="#028ADE" stroke-width="0.5" stroke-miterlimit="10"/>
<path d="M539.908 565.889C532.588 334.78 610.33 144.779 713.55 141.51C816.77 138.24 906.381 322.94 913.702 554.048C921.022 785.157 843.28 975.158 740.06 978.427C636.84 981.697 547.229 796.997 539.908 565.889Z" stroke="#028ADE" stroke-width="0.5" stroke-miterlimit="10"/>
<path d="M395.907 735.993C395.779 502.684 479.512 313.504 582.929 313.447C686.346 313.391 770.286 502.479 770.413 735.788C770.541 969.098 686.808 1158.28 583.391 1158.33C479.974 1158.39 396.034 969.302 395.907 735.993Z" stroke="#028ADE" stroke-width="0.5" stroke-miterlimit="10"/>
<path d="M545.277 558.165C552.394 322.756 641.961 134.453 745.332 137.578C848.702 140.703 926.731 334.073 919.614 569.482C912.497 804.891 822.93 993.194 719.559 990.069C616.189 986.944 538.16 793.574 545.277 558.165Z" stroke="#028ADE" stroke-width="0.5" stroke-miterlimit="10"/>
<path d="M390.599 720.377C405.005 483.252 500.469 296.114 603.825 302.393C707.18 308.673 779.287 505.991 764.881 743.116C750.475 980.241 655.011 1167.38 551.656 1161.1C448.301 1154.82 376.193 957.502 390.599 720.377Z" stroke="#028ADE" stroke-width="0.5" stroke-miterlimit="10"/>
<path d="M550.789 551.295C572.521 312.498 673.85 126.534 777.113 135.931C880.377 145.329 946.471 346.53 924.739 585.327C903.007 824.124 801.678 1010.09 698.415 1000.69C595.151 991.293 529.057 790.092 550.789 551.295Z" stroke="#028ADE" stroke-width="0.5" stroke-miterlimit="10"/>
<path d="M385.676 704.51C414.783 464.406 521.94 279.894 625.017 292.39C728.094 304.885 788.059 509.657 758.952 749.761C729.845 989.864 622.689 1174.38 519.611 1161.88C416.534 1149.38 356.569 944.613 385.676 704.51Z" stroke="#028ADE" stroke-width="0.5" stroke-miterlimit="10"/>
<path d="M556.89 544.972C593.38 303.808 706.29 120.914 809.081 136.468C911.873 152.021 965.62 360.132 929.13 601.296C892.639 842.46 779.729 1025.35 676.938 1009.8C574.147 994.247 520.4 786.136 556.89 544.972Z" stroke="#028ADE" stroke-width="0.5" stroke-miterlimit="10"/>
<path d="M381.668 688.354C425.558 446.455 544.283 265.444 646.849 284.053C749.415 302.663 796.982 513.846 753.092 755.744C709.203 997.642 590.477 1178.65 487.911 1160.04C385.345 1141.44 337.778 930.252 381.668 688.354Z" stroke="#028ADE" stroke-width="0.5" stroke-miterlimit="10"/>
<path d="M563.151 539.415C614.453 297.007 738.823 118.016 840.939 139.627C943.055 161.239 984.248 375.269 932.947 617.677C881.645 860.085 757.275 1039.08 655.159 1017.46C553.043 995.853 511.849 781.823 563.151 539.415Z" stroke="#028ADE" stroke-width="0.5" stroke-miterlimit="10"/>
<path d="M378.298 671.985C437.016 429.273 567.078 252.465 668.8 277.074C770.522 301.683 805.384 518.39 746.666 761.103C687.948 1003.82 557.885 1180.62 456.163 1156.01C354.441 1131.41 319.579 914.698 378.298 671.985Z" stroke="#028ADE" stroke-width="0.5" stroke-miterlimit="10"/>
<path d="M569.084 534.405C635.226 291.622 770.915 117.166 872.152 144.747C973.389 172.327 1001.84 391.5 935.696 634.283C869.554 877.067 733.866 1051.52 632.628 1023.94C531.391 996.362 502.941 777.189 569.084 534.405Z" stroke="#028ADE" stroke-width="0.5" stroke-miterlimit="10"/>
<path d="M376 655.28C449.551 412.765 590.788 240.92 691.462 271.453C792.136 301.986 814.124 523.335 740.572 765.849C667.021 1008.36 525.784 1180.21 425.11 1149.68C324.436 1119.14 302.449 897.795 376 655.28Z" stroke="#028ADE" stroke-width="0.5" stroke-miterlimit="10"/>
<path d="M575.312 529.825C656.286 287.788 803.02 118.708 903.051 152.173C1003.08 185.639 1018.53 408.978 937.558 651.015C856.584 893.052 709.85 1062.13 609.818 1028.67C509.787 995.2 494.338 771.861 575.312 529.825Z" stroke="#028ADE" stroke-width="0.5" stroke-miterlimit="10"/>
<path d="M374.209 638.107C462.546 396.897 614.767 230.879 714.203 267.295C813.639 303.711 822.636 528.771 734.298 769.981C645.961 1011.19 493.741 1177.21 394.305 1140.79C294.869 1104.38 285.872 879.317 374.209 638.107Z" stroke="#028ADE" stroke-width="0.5" stroke-miterlimit="10"/>
</g>
</svg>
