<svg width="439" height="416" viewBox="0 0 439 416" fill="none" xmlns="http://www.w3.org/2000/svg">
<g opacity="0.24">
<path d="M200.094 5.206C222.911 -43.9377 308.675 -40.5065 391.654 12.8697C474.632 66.2459 523.403 149.355 500.586 198.498C477.769 247.642 392.005 244.211 309.027 190.835C226.048 137.459 177.277 54.3497 200.094 5.206Z" stroke="#028ADE" stroke-width="0.5" stroke-miterlimit="10"/>
<path d="M185.106 -109.358C210.039 -157.43 296.304 -149.704 377.784 -92.1014C459.263 -34.4987 505.103 51.1676 480.17 99.2397C455.236 147.312 368.971 139.586 287.492 81.9831C206.012 24.3804 160.172 -61.2859 185.106 -109.358Z" stroke="#028ADE" stroke-width="0.5" stroke-miterlimit="10"/>
<path d="M202.75 -8.6027C229.731 -55.4315 316.344 -43.3001 396.206 18.4935C476.067 80.2872 518.936 168.343 491.954 215.172C464.973 262.001 378.36 249.869 298.498 188.076C218.637 126.282 175.768 38.2261 202.75 -8.6027Z" stroke="#028ADE" stroke-width="0.5" stroke-miterlimit="10"/>
<path d="M194.333 -125.645C223.322 -171.132 310.109 -154.58 388.178 -88.6755C466.247 -22.7714 506.033 67.5283 477.044 113.014C448.055 158.501 361.267 141.949 283.199 76.0446C205.13 10.1405 165.343 -80.1592 194.333 -125.645Z" stroke="#028ADE" stroke-width="0.5" stroke-miterlimit="10"/>
<path d="M206.309 -22.0999C237.21 -66.0976 324.012 -45.0548 400.188 24.9004C476.363 94.8555 513.066 187.233 482.165 231.23C451.265 275.228 364.462 254.185 288.287 184.23C212.111 114.275 175.409 21.8978 206.309 -22.0999Z" stroke="#028ADE" stroke-width="0.5" stroke-miterlimit="10"/>
<path d="M204.516 -141.174C237.312 -183.659 323.984 -158.193 398.104 -84.2952C472.224 -10.3974 505.724 83.949 472.928 126.433C440.133 168.918 353.46 143.452 279.34 69.5544C205.22 -4.34341 171.72 -98.6898 204.516 -141.174Z" stroke="#028ADE" stroke-width="0.5" stroke-miterlimit="10"/>
<path d="M210.753 -35.4079C245.334 -76.2405 331.702 -46.295 403.66 31.4772C475.619 109.249 505.919 205.398 471.337 246.23C436.755 287.063 350.388 257.117 278.429 179.345C206.471 101.573 176.171 5.42472 210.753 -35.4079Z" stroke="#028ADE" stroke-width="0.5" stroke-miterlimit="10"/>
<path d="M215.821 -155.865C252.072 -194.932 337.972 -160.464 407.685 -78.879C477.397 2.70637 504.524 100.515 468.273 139.582C432.022 178.649 346.122 144.182 276.409 62.5963C206.697 -18.9891 179.57 -116.797 215.821 -155.865Z" stroke="#028ADE" stroke-width="0.5" stroke-miterlimit="10"/>
<path d="M215.866 -48.2349C253.753 -85.534 339.048 -46.6583 406.378 38.5965C473.708 123.851 497.577 223.201 459.69 260.5C421.803 297.799 336.508 258.923 269.178 173.669C201.848 88.4138 177.979 -10.9357 215.866 -48.2349Z" stroke="#028ADE" stroke-width="0.5" stroke-miterlimit="10"/>
<path d="M227.883 -169.642C267.282 -205.07 351.801 -161.753 416.661 -72.8927C481.521 15.9681 502.161 116.724 462.762 152.151C423.363 187.579 338.844 144.262 273.984 55.4017C209.124 -33.459 188.484 -134.215 227.883 -169.642Z" stroke="#028ADE" stroke-width="0.5" stroke-miterlimit="10"/>
<path d="M221.734 -60.5651C262.556 -94.0847 346.132 -46.4253 408.405 45.8852C470.677 138.196 488.067 240.201 447.244 273.721C406.422 307.241 322.847 259.581 260.574 167.271C198.301 74.9601 180.912 -27.0454 221.734 -60.5651Z" stroke="#028ADE" stroke-width="0.5" stroke-miterlimit="10"/>
<path d="M240.699 -182.277C282.865 -213.855 365.374 -161.883 424.988 -66.1956C484.603 29.4921 498.748 132.661 456.582 164.239C414.417 195.817 331.908 143.846 272.293 48.1583C212.679 -47.5295 198.533 -150.699 240.699 -182.277Z" stroke="#028ADE" stroke-width="0.5" stroke-miterlimit="10"/>
<path d="M228.186 -72.4271C271.612 -102.041 352.906 -45.8582 409.763 53.0607C466.619 151.98 477.507 256.176 434.082 285.79C390.656 315.404 309.362 259.221 252.505 160.302C195.649 61.383 184.761 -42.8133 228.186 -72.4271Z" stroke="#028ADE" stroke-width="0.5" stroke-miterlimit="10"/>
<path d="M254.182 -193.81C298.724 -221.4 378.637 -161.023 432.671 -58.9546C486.706 43.114 494.402 148.223 449.859 175.814C405.317 203.404 325.405 143.028 271.37 40.9589C217.335 -61.1098 209.639 -166.219 254.182 -193.81Z" stroke="#028ADE" stroke-width="0.5" stroke-miterlimit="10"/>
<path d="M235.266 -83.6655C280.842 -109.222 359.229 -44.7613 410.349 60.3123C461.469 165.386 465.963 271.283 420.387 296.84C374.812 322.397 296.424 257.935 245.305 152.862C194.185 47.7883 189.69 -58.1086 235.266 -83.6655Z" stroke="#028ADE" stroke-width="0.5" stroke-miterlimit="10"/>
<path d="M268.213 -204.156C314.798 -227.712 391.58 -159.319 439.711 -51.3963C487.841 56.5268 489.094 163.112 442.508 186.668C395.923 210.225 319.141 141.832 271.01 33.9091C222.88 -74.014 221.627 -180.599 268.213 -204.156Z" stroke="#028ADE" stroke-width="0.5" stroke-miterlimit="10"/>
<path d="M242.79 -94.3091C290.244 -115.828 365.265 -43.5329 410.354 67.1664C455.443 177.866 453.527 285.05 406.073 306.569C358.619 328.088 283.598 255.792 238.508 145.093C193.419 34.3938 195.336 -72.7902 242.79 -94.3091Z" stroke="#028ADE" stroke-width="0.5" stroke-miterlimit="10"/>
<path d="M282.722 -213.256C330.963 -232.74 404.095 -156.668 446.067 -43.3452C488.039 69.9779 482.956 177.639 434.715 197.123C386.474 216.608 313.343 140.536 271.371 27.2131C229.399 -86.11 234.481 -193.771 282.722 -213.256Z" stroke="#028ADE" stroke-width="0.5" stroke-miterlimit="10"/>
<path d="M250.831 -104.372C299.787 -121.83 370.918 -42.0988 409.707 73.7121C448.496 189.523 440.254 297.559 391.298 315.016C342.342 332.474 271.21 252.743 232.422 136.933C193.633 21.1218 201.875 -86.9138 250.831 -104.372Z" stroke="#028ADE" stroke-width="0.5" stroke-miterlimit="10"/>
<path d="M297.655 -221.251C347.253 -236.695 416.278 -153.431 451.826 -35.2747C487.375 82.8812 475.985 191.186 426.388 206.63C376.79 222.074 307.765 138.81 272.217 20.6537C236.669 -97.5022 248.058 -205.807 297.655 -221.251Z" stroke="#028ADE" stroke-width="0.5" stroke-miterlimit="10"/>
<path d="M226.978 128.68C194.708 8.24936 209.217 -100.276 259.383 -113.718C309.55 -127.16 376.377 -40.4286 408.646 80.0022C440.916 200.433 426.407 308.958 376.241 322.401C326.074 335.843 259.247 249.111 226.978 128.68Z" stroke="#028ADE" stroke-width="0.5" stroke-miterlimit="10"/>
<path d="M273.55 14.7018C244.61 -107.863 262.222 -216.509 312.888 -227.968C363.553 -239.426 428.087 -149.356 457.027 -26.7921C485.967 95.7723 468.355 204.419 417.689 215.877C367.023 227.336 302.49 137.266 273.55 14.7018Z" stroke="#028ADE" stroke-width="0.5" stroke-miterlimit="10"/>
<path d="M221.922 120.175C196.364 -4.39012 217.07 -113.064 268.171 -122.555C319.273 -132.046 381.418 -38.7598 406.977 85.8054C432.536 210.371 411.83 319.045 360.728 328.535C309.627 338.026 247.481 244.74 221.922 120.175Z" stroke="#028ADE" stroke-width="0.5" stroke-miterlimit="10"/>
<path d="M275.303 8.96589C253.172 -117.462 276.959 -226.066 328.432 -233.609C379.905 -241.152 439.572 -144.776 461.703 -18.3483C483.834 108.08 460.048 216.684 408.575 224.227C357.102 231.769 297.434 135.394 275.303 8.96589Z" stroke="#028ADE" stroke-width="0.5" stroke-miterlimit="10"/>
<path d="M217.544 111.621C198.887 -16.5265 225.738 -124.961 277.518 -130.575C329.298 -136.189 386.399 -36.8556 405.057 91.2919C423.715 219.439 396.864 327.874 345.083 333.488C293.303 339.101 236.202 239.768 217.544 111.621Z" stroke="#028ADE" stroke-width="0.5" stroke-miterlimit="10"/>
<path d="M277.542 3.8813C262.398 -125.85 292.298 -234.023 344.325 -237.729C396.353 -241.435 450.807 -139.271 465.951 -9.53902C481.096 120.193 451.196 228.365 399.168 232.071C347.14 235.777 292.686 133.613 277.542 3.8813Z" stroke="#028ADE" stroke-width="0.5" stroke-miterlimit="10"/>
<path d="M213.513 102.779C201.918 -28.4108 234.909 -136.239 287.2 -138.062C339.491 -139.885 391.28 -35.0124 402.876 96.1771C414.471 227.367 381.48 335.195 329.189 337.018C276.898 338.841 225.108 233.968 213.513 102.779Z" stroke="#028ADE" stroke-width="0.5" stroke-miterlimit="10"/>
<path d="M279.954 -0.894874C271.943 -133.412 307.952 -240.803 360.382 -240.761C412.812 -240.719 461.81 -133.258 469.82 -0.741223C477.831 131.776 441.823 239.167 389.393 239.125C336.962 239.082 287.965 131.622 279.954 -0.894874Z" stroke="#028ADE" stroke-width="0.5" stroke-miterlimit="10"/>
<path d="M209.881 93.8703C205.487 -39.7736 244.558 -146.584 297.148 -144.697C349.738 -142.811 395.932 -32.9417 400.326 100.702C404.72 234.346 365.649 341.156 313.059 339.27C260.47 337.383 214.275 227.514 209.881 93.8703Z" stroke="#028ADE" stroke-width="0.5" stroke-miterlimit="10"/>
<path d="M282.541 -5.21946C281.792 -139.932 323.846 -246.131 376.471 -242.423C429.096 -238.715 472.364 -126.503 473.113 8.20884C473.862 142.921 431.808 249.121 379.183 245.413C326.558 241.704 283.29 129.493 282.541 -5.21946Z" stroke="#028ADE" stroke-width="0.5" stroke-miterlimit="10"/>
<path d="M206.892 84.8268C209.818 -50.7333 254.893 -156.156 307.569 -150.642C360.244 -145.127 400.575 -30.7634 397.649 104.797C394.723 240.357 349.648 345.78 296.972 340.265C244.297 334.751 203.966 220.387 206.892 84.8268Z" stroke="#028ADE" stroke-width="0.5" stroke-miterlimit="10"/>
<path d="M285.217 -9.05211C291.837 -145.434 339.915 -250.076 392.603 -242.777C445.29 -235.478 482.634 -119.001 476.014 17.3803C469.393 153.762 421.315 258.404 368.628 251.105C315.94 243.806 278.596 127.329 285.217 -9.05211Z" stroke="#028ADE" stroke-width="0.5" stroke-miterlimit="10"/>
<path d="M204.094 75.6466C214.441 -61.3465 265.51 -165.049 318.16 -155.978C370.81 -146.908 405.104 -28.5002 394.757 108.493C384.41 245.486 333.341 349.188 280.691 340.118C228.041 331.048 193.748 212.64 204.094 75.6466Z" stroke="#028ADE" stroke-width="0.5" stroke-miterlimit="10"/>
<path d="M288.202 -12.5611C302.283 -150.025 356.308 -252.693 408.869 -241.877C461.431 -231.06 492.624 -110.855 478.543 26.6084C464.461 164.072 410.436 266.74 357.875 255.924C305.314 245.108 274.12 124.903 288.202 -12.5611Z" stroke="#028ADE" stroke-width="0.5" stroke-miterlimit="10"/>
<path d="M201.756 66.3179C219.587 -71.4292 276.604 -172.911 329.108 -160.348C381.611 -147.786 409.719 -25.9355 391.888 111.812C374.057 249.559 317.04 351.041 264.537 338.478C212.033 325.915 183.926 204.065 201.756 66.3179Z" stroke="#028ADE" stroke-width="0.5" stroke-miterlimit="10"/>
<path d="M291.283 -15.6276C312.874 -153.529 372.799 -253.749 425.129 -239.475C477.459 -225.201 502.379 -101.839 480.788 36.0628C459.197 173.964 399.273 274.184 346.942 259.91C294.612 245.637 269.692 122.274 291.283 -15.6276Z" stroke="#028ADE" stroke-width="0.5" stroke-miterlimit="10"/>
<path d="M199.739 56.8796C225.095 -81.0588 287.956 -179.923 340.141 -163.939C392.327 -147.955 414.076 -23.1765 388.72 114.762C363.363 252.7 300.503 351.564 248.317 335.58C196.132 319.597 174.382 194.818 199.739 56.8796Z" stroke="#028ADE" stroke-width="0.5" stroke-miterlimit="10"/>
<path d="M294.207 -18.3872C323.338 -156.228 389.102 -253.641 441.096 -235.964C493.091 -218.287 511.625 -92.2147 482.494 45.6264C453.364 183.467 387.599 280.88 335.605 263.203C283.61 245.526 265.076 119.454 294.207 -18.3872Z" stroke="#028ADE" stroke-width="0.5" stroke-miterlimit="10"/>
<path d="M198.26 47.2677C231.163 -90.2821 299.799 -186.096 351.561 -166.738C403.323 -147.381 418.612 -20.1823 385.709 117.367C352.806 254.917 284.171 350.731 232.408 331.373C180.646 312.016 165.357 184.817 198.26 47.2677Z" stroke="#028ADE" stroke-width="0.5" stroke-miterlimit="10"/>
<path d="M297.289 -20.8959C333.976 -158.034 405.457 -252.162 456.947 -231.137C508.438 -210.111 520.438 -81.8939 483.751 55.2445C447.064 192.383 375.583 286.511 324.093 265.485C272.603 244.46 260.602 116.242 297.289 -20.8959Z" stroke="#028ADE" stroke-width="0.5" stroke-miterlimit="10"/>
<path d="M197.03 37.3979C237.477 -99.1302 311.806 -191.402 363.048 -168.698C414.29 -145.993 423.041 -16.9099 382.594 119.618C342.148 256.146 267.819 348.418 216.577 325.714C165.335 303.009 156.584 173.926 197.03 37.3979Z" stroke="#028ADE" stroke-width="0.5" stroke-miterlimit="10"/>
</g>
</svg>
