<svg width="1573" height="1575" viewBox="0 0 1573 1575" fill="none" xmlns="http://www.w3.org/2000/svg">
<g opacity="0.24">
<path d="M987.417 1145.45C1093.86 1043.31 1028.53 802.492 841.488 607.565C654.449 412.639 416.534 337.418 310.091 439.555C203.647 541.691 268.981 782.508 456.02 977.435C643.059 1172.36 880.973 1247.58 987.417 1145.45Z" stroke="#028ADE" stroke-width="0.5" stroke-miterlimit="10"/>
<path d="M1280.75 1100.86C1383.14 993.528 1306.85 754.556 1110.35 567.099C913.849 379.642 671.551 314.686 569.161 422.015C466.771 529.345 543.062 768.317 739.562 955.774C936.062 1143.23 1178.36 1208.19 1280.75 1100.86Z" stroke="#028ADE" stroke-width="0.5" stroke-miterlimit="10"/>
<path d="M1019.82 1127.41C1117.77 1015.21 1030.35 778.599 824.558 598.922C618.763 419.244 372.523 364.539 274.566 476.735C176.609 588.931 264.029 825.541 469.823 1005.22C675.618 1184.9 921.858 1239.6 1019.82 1127.41Z" stroke="#028ADE" stroke-width="0.5" stroke-miterlimit="10"/>
<path d="M1314.93 1062.28C1408.23 945.407 1309.76 711.664 1094.99 540.202C880.211 368.739 630.463 324.487 537.158 441.361C443.853 558.236 542.323 791.979 757.098 963.441C971.872 1134.9 1221.62 1179.16 1314.93 1062.28Z" stroke="#028ADE" stroke-width="0.5" stroke-miterlimit="10"/>
<path d="M1050.84 1107.04C1139.2 985.87 1029.61 755.501 806.07 592.493C582.529 429.485 329.687 395.566 241.331 516.733C152.975 637.901 262.564 868.27 486.105 1031.28C709.646 1194.29 962.488 1228.2 1050.84 1107.04Z" stroke="#028ADE" stroke-width="0.5" stroke-miterlimit="10"/>
<path d="M1346.59 1021.57C1429.95 896.172 1309.5 669.535 1077.57 515.36C845.639 361.185 590.048 337.854 506.692 463.25C423.336 588.646 543.779 815.283 775.711 969.458C1007.64 1123.63 1263.23 1146.96 1346.59 1021.57Z" stroke="#028ADE" stroke-width="0.5" stroke-miterlimit="10"/>
<path d="M1080.82 1084.3C1158.91 955.096 1027.58 732.731 787.5 587.638C547.417 442.544 289.49 429.667 211.403 558.875C133.317 688.083 264.641 910.448 504.723 1055.54C744.806 1200.64 1002.73 1213.51 1080.82 1084.3Z" stroke="#028ADE" stroke-width="0.5" stroke-miterlimit="10"/>
<path d="M1375.44 978.309C1448.05 845.706 1305.85 628.106 1057.82 492.287C809.795 356.468 549.865 353.86 477.252 486.463C404.638 619.066 546.839 836.665 794.866 972.485C1042.89 1108.3 1302.82 1110.91 1375.44 978.309Z" stroke="#028ADE" stroke-width="0.5" stroke-miterlimit="10"/>
<path d="M1109.16 1060.04C1176.32 924.134 1023.61 711.605 768.087 585.339C512.562 459.073 250.979 466.884 183.824 602.786C116.669 738.688 269.372 951.217 524.897 1077.48C780.422 1203.75 1042.01 1195.94 1109.16 1060.04Z" stroke="#028ADE" stroke-width="0.5" stroke-miterlimit="10"/>
<path d="M1401.52 933.594C1463.05 794.823 1299.87 587.874 1037.06 471.362C774.256 354.849 511.335 372.893 449.812 511.664C388.289 650.436 551.463 857.384 814.271 973.897C1077.08 1090.41 1340 1072.37 1401.52 933.594Z" stroke="#028ADE" stroke-width="0.5" stroke-miterlimit="10"/>
<path d="M1135.77 1034C1191.63 892.644 1018.34 691.677 748.714 585.131C479.088 478.585 215.229 506.807 159.369 648.166C103.509 789.526 276.801 990.493 546.428 1097.04C816.054 1203.59 1079.91 1175.36 1135.77 1034Z" stroke="#028ADE" stroke-width="0.5" stroke-miterlimit="10"/>
<path d="M1424.28 887.609C1474.45 743.914 1291.2 549.252 1014.98 452.819C738.759 356.387 474.171 394.701 424.005 538.397C373.839 682.092 557.091 876.754 833.309 973.187C1109.53 1069.62 1374.12 1031.3 1424.28 887.609Z" stroke="#028ADE" stroke-width="0.5" stroke-miterlimit="10"/>
<path d="M1160.84 1006.67C1205.31 860.892 1012.45 672.88 730.063 586.733C447.68 500.586 182.71 548.926 138.238 694.704C93.7651 840.482 286.63 1028.49 569.014 1114.64C851.398 1200.79 1116.37 1152.45 1160.84 1006.67Z" stroke="#028ADE" stroke-width="0.5" stroke-miterlimit="10"/>
<path d="M1443.87 840.571C1482.6 693.162 1280.28 512.262 991.972 436.519C703.667 360.777 438.555 418.873 399.829 566.282C361.102 713.691 563.425 894.591 851.73 970.333C1140.04 1046.08 1405.15 987.979 1443.87 840.571Z" stroke="#028ADE" stroke-width="0.5" stroke-miterlimit="10"/>
<path d="M1183.95 978.027C1216.96 829.231 1005.54 655.767 711.736 590.584C417.93 525.4 152.992 593.181 119.98 741.977C86.9689 890.772 298.385 1064.24 592.191 1129.42C885.998 1194.6 1150.94 1126.82 1183.95 978.027Z" stroke="#028ADE" stroke-width="0.5" stroke-miterlimit="10"/>
<path d="M1460.17 792.877C1487.56 642.738 1267.48 476.82 968.61 422.288C669.737 367.757 405.245 445.263 377.851 595.402C350.457 745.542 570.535 911.46 869.409 965.991C1168.28 1020.52 1432.77 943.017 1460.17 792.877Z" stroke="#028ADE" stroke-width="0.5" stroke-miterlimit="10"/>
<path d="M1205.29 948.577C1227.07 797.522 998.503 639.57 694.778 595.782C391.052 551.993 127.179 638.95 105.402 790.006C83.624 941.061 312.188 1099.01 615.914 1142.8C919.639 1186.59 1183.51 1099.63 1205.29 948.577Z" stroke="#028ADE" stroke-width="0.5" stroke-miterlimit="10"/>
<path d="M1473.06 744.773C1489.28 593.032 1252.63 443.314 944.481 410.37C636.332 377.426 373.376 473.731 357.153 625.472C340.931 777.214 577.584 926.932 885.734 959.876C1193.88 992.82 1456.84 896.515 1473.06 744.773Z" stroke="#028ADE" stroke-width="0.5" stroke-miterlimit="10"/>
<path d="M1224.85 918.101C1235.59 765.871 991.209 624.615 679.015 602.597C366.821 580.579 105.034 686.137 94.2981 838.367C83.5618 990.597 327.941 1131.85 640.135 1153.87C952.329 1175.89 1214.12 1070.33 1224.85 918.101Z" stroke="#028ADE" stroke-width="0.5" stroke-miterlimit="10"/>
<path d="M1482.94 696.308C1488.27 543.788 1236.55 411.198 920.699 400.161C604.852 389.124 344.487 503.818 339.157 656.339C333.827 808.859 585.552 941.448 901.399 952.485C1217.25 963.522 1477.61 848.828 1482.94 696.308Z" stroke="#028ADE" stroke-width="0.5" stroke-miterlimit="10"/>
<path d="M664.157 1163.05C983.458 1163.05 1242.3 1039.33 1242.3 886.719C1242.3 734.107 983.458 610.391 664.157 610.391C344.856 610.391 86.0115 734.107 86.0115 886.719C86.0115 1039.33 344.856 1163.05 664.157 1163.05Z" stroke="#028ADE" stroke-width="0.5" stroke-miterlimit="10"/>
<path d="M915.238 944.177C1237.61 933.104 1494.7 800.486 1489.46 647.966C1484.22 495.446 1218.64 380.78 896.268 391.852C573.896 402.924 316.809 535.542 322.047 688.062C327.285 840.582 592.866 955.249 915.238 944.177Z" stroke="#028ADE" stroke-width="0.5" stroke-miterlimit="10"/>
<path d="M688.547 1170.93C1013.63 1148.74 1268.73 1007.31 1258.34 855.054C1247.94 702.793 975.989 597.351 650.908 619.542C325.828 641.733 70.7241 783.154 81.1179 935.414C91.5116 1087.67 363.467 1193.12 688.547 1170.93Z" stroke="#028ADE" stroke-width="0.5" stroke-miterlimit="10"/>
<path d="M928.266 934.837C1255.68 901.5 1508.57 751.389 1493.11 599.556C1477.65 447.723 1199.7 351.663 872.282 385C544.866 418.337 291.975 568.448 307.435 720.281C322.894 872.114 600.85 968.174 928.266 934.837Z" stroke="#028ADE" stroke-width="0.5" stroke-miterlimit="10"/>
<path d="M712.61 1176.85C1041.98 1132.34 1292.42 973.665 1271.98 822.426C1251.55 671.188 967.977 584.662 638.609 629.165C309.242 673.668 58.8024 832.347 79.2371 983.585C99.6718 1134.82 383.242 1221.35 712.61 1176.85Z" stroke="#028ADE" stroke-width="0.5" stroke-miterlimit="10"/>
<path d="M939.359 924.616C1270.32 868.936 1518.09 701.802 1492.77 551.312C1467.45 400.822 1178.63 323.963 847.674 379.643C516.716 435.322 268.946 602.457 294.264 752.947C319.583 903.437 608.401 980.296 939.359 924.616Z" stroke="#028ADE" stroke-width="0.5" stroke-miterlimit="10"/>
<path d="M737.155 1181.56C1069.37 1114.7 1314.24 939.058 1284.09 789.252C1253.93 639.447 960.182 572.209 627.971 639.071C295.759 705.934 50.8903 881.578 81.0408 1031.38C111.191 1181.19 404.944 1248.43 737.155 1181.56Z" stroke="#028ADE" stroke-width="0.5" stroke-miterlimit="10"/>
<path d="M949.576 914.136C1282.69 836.091 1524.48 652.212 1489.63 503.431C1454.77 354.65 1156.47 297.306 823.346 375.351C490.227 453.396 248.438 637.275 283.296 786.056C318.153 934.838 616.457 992.181 949.576 914.136Z" stroke="#028ADE" stroke-width="0.5" stroke-miterlimit="10"/>
<path d="M761.599 1185.1C1095.11 1095.93 1333.43 903.802 1293.91 755.97C1254.38 608.138 951.976 560.581 618.466 649.749C284.957 738.918 46.6349 931.045 86.1599 1078.88C125.685 1226.71 428.089 1274.27 761.599 1185.1Z" stroke="#028ADE" stroke-width="0.5" stroke-miterlimit="10"/>
<path d="M958.558 903.504C1292.29 803.178 1527.13 603.048 1483.07 456.501C1439.02 309.954 1132.76 272.485 799.023 372.811C465.286 473.138 230.453 673.268 274.507 819.815C318.562 966.362 624.821 1003.83 958.558 903.504Z" stroke="#028ADE" stroke-width="0.5" stroke-miterlimit="10"/>
<path d="M785.951 1186.7C1119.35 1075.3 1350.26 867.189 1301.7 721.871C1253.15 576.554 943.51 549.06 610.112 660.462C276.714 771.865 45.8045 979.977 94.3611 1125.29C142.918 1270.61 452.553 1298.11 785.951 1186.7Z" stroke="#028ADE" stroke-width="0.5" stroke-miterlimit="10"/>
<path d="M966.266 892.996C1299.25 770.483 1526.23 554.438 1473.26 410.446C1420.28 266.454 1107.39 249.042 774.413 371.555C441.432 494.068 214.445 710.113 267.423 854.105C320.402 998.097 633.284 1015.51 966.266 892.996Z" stroke="#028ADE" stroke-width="0.5" stroke-miterlimit="10"/>
<path d="M810.515 1187.66C1142.54 1054.11 1365.22 830.29 1307.88 687.75C1250.55 545.211 934.91 537.927 602.885 671.481C270.861 805.035 48.1815 1028.85 105.517 1171.39C162.852 1313.93 478.491 1321.22 810.515 1187.66Z" stroke="#028ADE" stroke-width="0.5" stroke-miterlimit="10"/>
<path d="M972.968 881.854C1303.68 737.341 1521.84 505.92 1460.25 364.96C1398.65 224 1080.62 226.881 749.91 371.394C419.196 515.907 201.034 747.329 262.63 888.289C324.225 1029.25 642.255 1026.37 972.968 881.854Z" stroke="#028ADE" stroke-width="0.5" stroke-miterlimit="10"/>
<path d="M835.142 1187.2C1164.07 1031.83 1377.32 792.821 1311.44 653.354C1245.56 513.887 925.507 526.778 596.578 682.148C267.649 837.518 54.4043 1076.53 120.282 1216C186.159 1355.47 506.213 1342.57 835.142 1187.2Z" stroke="#028ADE" stroke-width="0.5" stroke-miterlimit="10"/>
<path d="M978.511 870.777C1305.33 704.618 1513.53 458.312 1443.53 320.637C1373.53 182.962 1051.85 206.053 725.034 372.212C398.215 538.371 190.019 784.677 260.015 922.352C330.011 1060.03 651.692 1036.94 978.511 870.777Z" stroke="#028ADE" stroke-width="0.5" stroke-miterlimit="10"/>
<path d="M859.827 1185.75C1184.24 1008.88 1387.14 755.271 1313.01 619.307C1238.88 483.344 915.794 516.51 591.38 693.385C266.967 870.261 64.0713 1123.87 138.201 1259.83C212.33 1395.79 535.414 1362.63 859.827 1185.75Z" stroke="#028ADE" stroke-width="0.5" stroke-miterlimit="10"/>
<path d="M983.399 860.379C1305.07 672.865 1502.45 412.118 1424.26 277.986C1346.07 143.853 1021.92 187.128 700.245 374.642C378.574 562.157 181.194 822.903 259.385 957.035C337.576 1091.17 661.728 1047.89 983.399 860.379Z" stroke="#028ADE" stroke-width="0.5" stroke-miterlimit="10"/>
<path d="M884.584 1182.64C1203.03 984.639 1394.56 716.961 1312.36 584.765C1230.17 452.568 905.38 505.912 586.93 703.912C268.48 901.913 76.9568 1169.59 159.152 1301.79C241.346 1433.98 566.133 1380.64 884.584 1182.64Z" stroke="#028ADE" stroke-width="0.5" stroke-miterlimit="10"/>
<path d="M987.562 849.724C1302.49 641.297 1487.95 366.822 1401.81 236.667C1315.67 106.512 990.544 169.963 675.619 378.39C360.695 586.816 175.229 861.291 261.369 991.446C347.51 1121.6 672.638 1058.15 987.562 849.724Z" stroke="#028ADE" stroke-width="0.5" stroke-miterlimit="10"/>
<path d="M909.815 1178.62C1220.74 959.99 1399.73 678.846 1309.6 550.672C1219.47 422.498 894.35 495.83 583.427 714.464C272.505 933.098 93.5165 1214.24 183.646 1342.42C273.775 1470.59 598.892 1397.26 909.815 1178.62Z" stroke="#028ADE" stroke-width="0.5" stroke-miterlimit="10"/>
</g>
</svg>
